<svg xmlns="http://www.w3.org/2000/svg" viewBox="0 0 131.03 40.45"><defs><style>.cls-1{fill:#555;}</style></defs><title>アセット 5</title><g id="レイヤー_2" data-name="レイヤー 2"><g id="レイヤー_1-2" data-name="レイヤー 1"><path class="cls-1" d="M30.21,17l1.88-.32a5.84,5.84,0,0,1,.86-.1c.25,0,.6,0,1.06,0s1.26-.08,2.44-.18a4.36,4.36,0,0,1,1-.06c.24,0,.34.11.32.3a.52.52,0,0,1-.36.4c-.22.08-.43.14-.64.2q-.93.39-1.68.66t-1.56.48l-1.74.48q-.95.26-2.22.66-.84,3.32-1.68,6.28T26.05,32c-.22.34-.39.5-.52.46a.53.53,0,0,1-.32-.36,6.5,6.5,0,0,1-.22-.62c-.07-.22-.14-.32-.22-.32a8.7,8.7,0,0,1,.2-2.24c.16-.72.3-1.43.44-2.12.21-1.2.46-2.34.74-3.42s.56-2.16.86-3.22q-2.76.6-5.46,1.44l-5.34,1.68-1,.32a3.44,3.44,0,0,0-.92.36,5.32,5.32,0,0,0-.52.3,2.47,2.47,0,0,0-.56.42A29.34,29.34,0,0,0,11,27.91c-.66,1.1-1.37,2.22-2.14,3.34s-1.59,2.32-2.28,3.44a24.86,24.86,0,0,0-1.88,3.72c-.11.24-.21.48-.3.74a2.37,2.37,0,0,1-.38.66,2,2,0,0,1-.6.46,2,2,0,0,1-.88.18,1.74,1.74,0,0,1-1.36-.52,3.05,3.05,0,0,1-.76-1.12.66.66,0,0,1,0-.48A1.11,1.11,0,0,1,.65,38,1.59,1.59,0,0,1,1,37.63a3.51,3.51,0,0,0,.32-.26l.88-1.18q.44-.63.84-1.26,1.51-2.52,3.18-5c1.1-1.66,2.22-3.31,3.34-5-.46.16-.81.26-1.06.32l-.68.12-.62.08a5.81,5.81,0,0,0-.92.2,6,6,0,0,0-.68.26,1.76,1.76,0,0,1-.68.14,17.49,17.49,0,0,0-2.26.46l-2,.54c-.35.1-.56.11-.64,0s-.06-.23.06-.4a2.62,2.62,0,0,1,.58-.58,3.68,3.68,0,0,1,1-.56,17,17,0,0,1,2.14-.76c.73-.22,1.44-.44,2.14-.68.93-.38,1.88-.72,2.84-1s1.92-.62,2.88-.88q2-2.68,4.06-5.34c1.37-1.78,2.79-3.52,4.26-5.24s3-3.39,4.54-5a59.51,59.51,0,0,1,4.94-4.58A11.47,11.47,0,0,1,31.21.77,5.08,5.08,0,0,1,33.41,0a1.33,1.33,0,0,1,.86.18,2,2,0,0,1,.58.58.23.23,0,0,1,.08.16.35.35,0,0,0,.08.2,1.35,1.35,0,0,0,.28.42c.08.06.09.27,0,.62a10,10,0,0,1-.24,1c-.11.33-.22.66-.32,1-.32,1.12-.68,2.21-1.06,3.28s-.78,2.13-1.18,3.2l-1.2,3.18C30.93,14.84,30.55,15.91,30.21,17ZM30,10.45c.45-1.15.88-2.38,1.28-3.68S32,4.18,32.37,2.93h0c-.08,0-.12,0-.12.08L30,5c-.78.69-1.55,1.4-2.32,2.12s-1.54,1.44-2.28,2.18S24,10.75,23.33,11.45c-1.26,1.38-2.5,2.79-3.74,4.22a32.66,32.66,0,0,0-3.38,4.66c1.73-.54,3.61-1,5.64-1.52s4-.91,5.88-1.28c.37-1.23.72-2.43,1.06-3.6A33.13,33.13,0,0,1,30,10.45Z"/><path class="cls-1" d="M39.57,24.21a3.34,3.34,0,0,0,1.66-.28l1.58-.68a4.53,4.53,0,0,0,1-.56l.14-.08a.82.82,0,0,0,.14-.16c.26-.22.56-.44.88-.68a4.88,4.88,0,0,0,.8-.76l.36-.28.12-.12v-.08s.06,0,.12-.08l1.44-1.68a3,3,0,0,1,.14-.56.57.57,0,0,0-.06-.52,2,2,0,0,0-.76,0c-.32,0-.58.05-.76.08a7.16,7.16,0,0,0-1.72.84l-1.48.92a7.24,7.24,0,0,0-1.32,1c-.54.45-1.08.94-1.62,1.46s-1.06,1-1.52,1.54-.81.89-1,1.16c-.14,0-.22.05-.24.16a.48.48,0,0,0-.26.06,1.17,1.17,0,0,1-.34.1h-.12l-.28.16a.71.71,0,0,1-.28.08c-.32,0-.52-.15-.58-.36a1.41,1.41,0,0,1,0-.74,3.4,3.4,0,0,1,.26-.82,3.62,3.62,0,0,0,.22-.6,2.46,2.46,0,0,1,.18-.42c.12-.26.25-.54.4-.84l.4-.86a2.17,2.17,0,0,0,.18-.48,1.76,1.76,0,0,0,.32-1c.37-1,.84-2.26,1.4-3.64s1.14-2.8,1.76-4.24S41.9,8.29,42.49,7s1.1-2.5,1.56-3.46l.72-.44a.93.93,0,0,1,.88.26,1.15,1.15,0,0,1,.28.9.21.21,0,0,1,0,.12.23.23,0,0,0-.08.12.31.31,0,0,1,0,.08s0,.06,0,.12v.12a1,1,0,0,1,0,.24.43.43,0,0,1-.16.2,1,1,0,0,1-.2.52,1,1,0,0,1-.06.38,2.15,2.15,0,0,1-.14.26s0,.06,0,.12,0,.09,0,.12a1,1,0,0,0-.28.5c-.06.2-.11.4-.16.62a.27.27,0,0,0-.1.18l-.06.18a.42.42,0,0,0,0,.24.31.31,0,0,1,0,.16c-.06.13-.11.26-.16.4s-.12.26-.2.4L44,9.67a1.07,1.07,0,0,0-.14.34l-.08.4a.34.34,0,0,1-.12.12.21.21,0,0,0-.12.16,1.54,1.54,0,0,1-.08.32c-.22.48-.47,1.06-.76,1.76s-.59,1.42-.88,2.18-.58,1.5-.84,2.22-.48,1.33-.64,1.84c.42-.27.9-.55,1.42-.84a15.23,15.23,0,0,1,1.62-.8,14.67,14.67,0,0,1,1.72-.62,8.31,8.31,0,0,1,1.72-.34c0-.11.06-.16.12-.16s.18.18.4.16a1.75,1.75,0,0,1,.56,0,2,2,0,0,1,1.56,1.16,1.89,1.89,0,0,1,.14.58c0,.2,0,.4,0,.62a.33.33,0,0,0-.12.22.73.73,0,0,1-.08.26,5.05,5.05,0,0,1-1.4,2c-.64.56-1.27,1.12-1.88,1.68H46l-.76.56c-.06,0-.08,0-.08,0a3.23,3.23,0,0,1-.38.32l-.42.28a1.21,1.21,0,0,0-.16.16.1.1,0,0,1-.16,0,5.86,5.86,0,0,1-.94.54l-1.06.42H42a.24.24,0,0,1-.16.1l-.24.06a1,1,0,0,1-.84.2.19.19,0,0,1-.16.06.18.18,0,0,0-.16,0v0h-.18c-.07,0-.12,0-.14,0v0a.37.37,0,0,1-.34,0,.28.28,0,0,0-.34,0L39,25.51a.3.3,0,0,1-.22-.22.54.54,0,0,1,.14-.44,2.37,2.37,0,0,1,.26-.32.26.26,0,0,0,.22-.1c0-.07.08-.09.14-.06Z"/><path class="cls-1" d="M59.53,18.69a1.94,1.94,0,0,1,0,.62,1.69,1.69,0,0,1-.24.54c-.06.13-.12.3-.2.52a3.25,3.25,0,0,1-.28.56,2.33,2.33,0,0,0-.58.82,1.85,1.85,0,0,1-.58.74,18.41,18.41,0,0,1-1.36,1.3,10.38,10.38,0,0,1-1.18.82,1.64,1.64,0,0,1-1.06.28,2.74,2.74,0,0,1-1.24.18,2.9,2.9,0,0,1-1.08-.32,2.4,2.4,0,0,1-.8-.72,2.28,2.28,0,0,1-.4-1.06.74.74,0,0,1,0-.3.33.33,0,0,1,.12-.3.7.7,0,0,1,0-.6,1.52,1.52,0,0,0,.14-.56l.72-2a.22.22,0,0,0,.14-.14c0-.07,0-.1.1-.1a5.21,5.21,0,0,1,.66-1.12,11.32,11.32,0,0,1,.86-1c.16-.22.34-.44.54-.68a4.3,4.3,0,0,1,.64-.64,1.57,1.57,0,0,1,.7-.36.73.73,0,0,1,.68.2,2.18,2.18,0,0,1,.68.24c0,.05.06.05.1,0a.09.09,0,0,1,.14,0,.48.48,0,0,1,.3,0,2.24,2.24,0,0,1,.46.12l.44.16a.79.79,0,0,1,.28.16l.4.56c.32-.08.82-.18,1.5-.28s1.39-.2,2.14-.26a16.77,16.77,0,0,1,2.08-.08,2.75,2.75,0,0,1,1.4.3.15.15,0,0,0,.1,0,.13.13,0,0,1,.1,0,.12.12,0,0,0,.08,0c.16,0,.24,0,.26,0s.07.08.18.08a.23.23,0,0,1,.08.34.85.85,0,0,1-.28.26,1,1,0,0,0-.54.12l-.2.14a1,1,0,0,1-.34.08l-.92,0a8.07,8.07,0,0,0-1.18.08,9.31,9.31,0,0,0-1.26.24l-1.22.3c-.39.09-.72.18-1,.26a.92.92,0,0,0,0,.26Zm-2.88-1.92a1,1,0,0,0-.4-.08.5.5,0,0,1-.36-.16l-.12.12a1.37,1.37,0,0,0-.38.48l-.34.6a7,7,0,0,0-.52.72c-.22.32-.43.66-.64,1s-.41.7-.58,1a2.3,2.3,0,0,0-.3.78c-.08.34-.19.72-.32,1.12a1.43,1.43,0,0,0,.08,1.16,6.57,6.57,0,0,0,1.54-.8,8.9,8.9,0,0,0,1.22-1.08l.24-.28c.1-.19.3-.54.6-1a11.07,11.07,0,0,0,.74-1.56,3.87,3.87,0,0,0,.28-1.42C57.37,17,57.13,16.77,56.65,16.77Z"/><path class="cls-1" d="M63.33,19.81c.08-.19.14-.32.18-.4a2.44,2.44,0,0,0,.1-.24,1.72,1.72,0,0,1,.1-.26l.18-.46c.1-.22.21-.43.32-.64a1.6,1.6,0,0,1,.36-.52.3.3,0,0,1,0-.14.58.58,0,0,0,0-.1,1,1,0,0,1,.12-.22.59.59,0,0,0,.08-.26.6.6,0,0,0,.3-.34.82.82,0,0,1,.3-.42c0-.06,0-.1,0-.12a.37.37,0,0,0,0-.12c.24-.16.48-.31.72-.44a1,1,0,0,1,.76-.12,1.44,1.44,0,0,1,.56.56,1,1,0,0,1,0,.74,2.3,2.3,0,0,1-.36.54l-.34.78c-.1.2-.18.39-.26.58s-.17.38-.26.6-.22.49-.38.84a2.28,2.28,0,0,1-.38.66,2.48,2.48,0,0,0-.42.74,3.34,3.34,0,0,1-.26.62,5.3,5.3,0,0,0-.34.76c-.08.22-.08.38,0,.46s.32,0,.72-.32a17.31,17.31,0,0,0,2.58-2.18c.78-.82,1.6-1.65,2.46-2.5.1-.14.24-.31.4-.52l.48-.66.42-.6a1.18,1.18,0,0,1,.3-.34,1,1,0,0,1,.36-.22.53.53,0,0,1,.46,0A.79.79,0,0,1,73,16,2.39,2.39,0,0,1,73,17.05c-.14.32-.25.59-.34.82a3.14,3.14,0,0,0-.22.78,5.94,5.94,0,0,0-.18.82c-.07.36-.12.72-.16,1.1a5,5,0,0,0,0,1q0,.45.24.54a1.51,1.51,0,0,0,.9.1,3.19,3.19,0,0,0,.86-.38L75.83,21l.84-.44a7,7,0,0,1,.84-.38c.33-.14.92-.35,1.78-.64,0,0,0,.09,0,.2s0,0,0,0a.6.6,0,0,1,.16,0,1.12,1.12,0,0,1-.44.58c-.24.17-.44.32-.6.46s-.1.05-.2.16a.85.85,0,0,1-.2.16l-2.32,1.44-1.68,1a4.09,4.09,0,0,1-.88.44l-.46.16-.46.12a2,2,0,0,1-.64,0,2.36,2.36,0,0,1-.52-.12,1,1,0,0,1-.6-.56,2.51,2.51,0,0,1-.18-.88,4.07,4.07,0,0,1,.06-1c0-.34.09-.62.12-.86a.89.89,0,0,1,0-.4,1.52,1.52,0,0,1,.12-.36,1.24,1.24,0,0,0-.28.28.87.87,0,0,1-.32.24.76.76,0,0,1-.22.2.75.75,0,0,0-.18.08.47.47,0,0,0-.18.12.58.58,0,0,0-.18.24c-.08,0-.13,0-.14,0l-.06.08s0,.05,0,.16a4.14,4.14,0,0,1-.8.58,2.53,2.53,0,0,0-.76.62,1.52,1.52,0,0,0-.56.5,1.91,1.91,0,0,1-.52.5,1.28,1.28,0,0,1-.52.36,1.33,1.33,0,0,1-.12.16.27.27,0,0,1-.16.08.59.59,0,0,1-.32.38,1.07,1.07,0,0,0-.44.34,2.64,2.64,0,0,1-2.08-.24,1.61,1.61,0,0,1-.56-1.3,5.17,5.17,0,0,1,.38-1.84A16.69,16.69,0,0,1,63.33,19.81Z"/><path class="cls-1" d="M77.05,26.81h0q-.33-.16-.36-.36a1.87,1.87,0,0,1,0-.4A20.61,20.61,0,0,1,77,23.17c.17-.94.36-1.83.58-2.68.26-1,.57-2.06.92-3s.66-2,1-3l.38-1.18c.12-.39.24-.77.38-1.14a5.64,5.64,0,0,0-1,.22,7.32,7.32,0,0,0-1.14.46l-.54.18-.58.18a2,2,0,0,0-.26.2.88.88,0,0,1-.3.16l-.34.06q-.15,0-.18-.06a.38.38,0,0,1-.2-.36,2,2,0,0,1,.08-.56,2.87,2.87,0,0,1,.18-.4,3,3,0,0,1,.18-.36l.48-.2a5.82,5.82,0,0,1,.78-.18l1-.22c.34-.08.66-.15,1-.2a3.3,3.3,0,0,1,.56-.08l.38-.08.38-.12c.29-.83.6-1.64.94-2.44s.68-1.62,1.06-2.44c.18-.35.35-.7.5-1.06s.28-.72.42-1.06a3.13,3.13,0,0,0,.28-.6.46.46,0,0,0,.08-.24.24.24,0,0,1,.08-.2.91.91,0,0,1,.16-.38,2,2,0,0,0,.2-.46,4.56,4.56,0,0,0,.14-.44.76.76,0,0,1,.18-.36,1.08,1.08,0,0,1,.52-.28A2.16,2.16,0,0,1,86,.65a2,2,0,0,1,.8.18.79.79,0,0,1,.48.5.38.38,0,0,1,0,.34c-.07.12-.16.24-.26.38a.75.75,0,0,0-.1.32,2.54,2.54,0,0,1-.1.36c-.3.64-.58,1.29-.84,2A18.8,18.8,0,0,1,85,6.61c-.27.58-.54,1.16-.82,1.72s-.56,1.13-.82,1.72h0a8.1,8.1,0,0,1,1-.18l.92-.14c.42-.06.72-.09.88-.1a1.33,1.33,0,0,1,.4,0H87l.94-.1q.43,0,.9-.06a2.25,2.25,0,0,1,1,.18c-.06,0-.07.1,0,.14l.08.14a0,0,0,0,0,0,0c0-.06,0-.08,0-.08a.29.29,0,0,0-.08.24.4.4,0,0,1,0,.2.76.76,0,0,1-.36.12.44.44,0,0,0-.28.08l0,.08-3.14.4a27.26,27.26,0,0,0-3.22.56l-.12.4c-.46,1.41-.92,2.82-1.4,4.24s-.92,2.82-1.32,4.24a4.59,4.59,0,0,1-.24.64,2.62,2.62,0,0,0-.24.68,1.73,1.73,0,0,0-.26.72,2.75,2.75,0,0,1-.22.72l-.14.2a.36.36,0,0,0-.1.24,1.42,1.42,0,0,0-.12.4c0,.13-.06.26-.08.4a2,2,0,0,0,0,.44,1.49,1.49,0,0,1,0,.36l-.24.4a.92.92,0,0,0-.08.4,2.85,2.85,0,0,1,0,.4c-.14.05-.19.1-.16.14s0,.07-.16.1a.91.91,0,0,1-.34.1A.85.85,0,0,0,77.05,26.81Z"/><path class="cls-1" d="M117.25,21.41a.83.83,0,0,0,.44,0l.46-.08c.12,0,.18,0,.2,0s-.1.14-.34.3-.3.24-.4.34l-.4.34s0,.06-.08.12l-.08,0a4.44,4.44,0,0,1-1.9,1.52,19.33,19.33,0,0,1-2.94,1q-.45.07-1,.12a3.06,3.06,0,0,1-1-.12l-.16-.2a.62.62,0,0,1-.42-.12,3.33,3.33,0,0,0-.34-.24c-.06-.14-.11-.28-.16-.42a1.59,1.59,0,0,1-.08-.58v-.28a1.75,1.75,0,0,1,0-.4,3.4,3.4,0,0,1,.28-1.14q.24-.59.48-1.14a5.44,5.44,0,0,1,.38-1q.3-.66.54-1.26a9.62,9.62,0,0,0,.32-.92c0-.22-.06-.23-.32,0a1.82,1.82,0,0,1-.42.3.66.66,0,0,0-.34.3l-.6.36a1.34,1.34,0,0,0-.48.44,5.74,5.74,0,0,0-1,.8,21.75,21.75,0,0,0-1.78,1.64c-.55.56-1.1,1.09-1.66,1.6a3.26,3.26,0,0,1-.68.64l-.34.38a1.91,1.91,0,0,1-.3.22,1.36,1.36,0,0,1-.36.1l-.56,0a.85.85,0,0,0-.52-.08,3.88,3.88,0,0,1-.44-.28.69.69,0,0,1-.22-.24.53.53,0,0,1,0-.32,1.94,1.94,0,0,1,.14-.52.22.22,0,0,1,0-.16,4.22,4.22,0,0,1,.08-1.12c.08-.46.17-.92.28-1.4s.2-.94.3-1.38a3.21,3.21,0,0,0,.08-1.06c0-.27-.16-.4-.36-.4a2,2,0,0,0-1,.6q-1.17,1-2.28,2c-.75.72-1.51,1.46-2.28,2.24a8.4,8.4,0,0,0-.84.94,2.22,2.22,0,0,1-1,.7c-.08.13-.18.26-.28.4a1.2,1.2,0,0,0-.24.52,3.45,3.45,0,0,0-.32.74c-.08.25-.32.4-.72.46a1.23,1.23,0,0,1-.78-.14,1.07,1.07,0,0,1-.58-.54,1,1,0,0,1,0-.5,6.15,6.15,0,0,1,.16-.62,29.9,29.9,0,0,1,1.06-3.3,31.17,31.17,0,0,0,1.22-4.34.67.67,0,0,1,.4-.44,1.09,1.09,0,0,1,1-.24,1,1,0,0,1,.76.48,1.89,1.89,0,0,1,0,1c-.1.46-.22,1-.36,1.46s-.3,1-.44,1.4a7.73,7.73,0,0,0-.26.8,1.46,1.46,0,0,0,.5-.28l.42-.4,2-2.06a15.59,15.59,0,0,1,2.26-1.94l1-.64a2.84,2.84,0,0,1,1.14-.44,1.59,1.59,0,0,1,.94.24,1.05,1.05,0,0,1,.58.68,13.67,13.67,0,0,1,.06,2.56c-.07.85-.17,1.74-.3,2.68l.28-.18c.13-.1.2-.13.2-.1a1.17,1.17,0,0,0,.52-.3,5.33,5.33,0,0,1,.4-.42,27.22,27.22,0,0,1,2.18-2c.76-.63,1.55-1.24,2.38-1.82a7.15,7.15,0,0,1,1.06-.6,4.7,4.7,0,0,1,1.18-.4,1.31,1.31,0,0,1,.68,0l.64.16a1.07,1.07,0,0,1,.6.88,3,3,0,0,1-.2,1.2,12.45,12.45,0,0,1-.6,1.32,8.06,8.06,0,0,0-.56,1.28,3,3,0,0,0-.4,1,4.87,4.87,0,0,1-.36,1.08,1.77,1.77,0,0,0-.2.46,2.42,2.42,0,0,0-.12.46c0,.24.12.36.38.36a3,3,0,0,0,.92-.18c.36-.12.72-.26,1.1-.42s.66-.28.88-.36a3.72,3.72,0,0,1,.46-.16l.22-.08a.76.76,0,0,1,.2-.08l.44-.2.44-.26a1.37,1.37,0,0,1,.32-.16l.34-.12C116.87,21.59,117,21.51,117.25,21.41Z"/><path class="cls-1" d="M122.41,23.85a2.9,2.9,0,0,1-.7.3c-.26.06-.5.14-.74.22l-1.08.24a5.41,5.41,0,0,1-1.2.1,3.62,3.62,0,0,1-1.14-.24,2.07,2.07,0,0,1-.9-.74,1.54,1.54,0,0,1-.32-.88,3.48,3.48,0,0,1,.08-1.06,6.41,6.41,0,0,1,.34-1.08,8.16,8.16,0,0,1,.46-1,1.26,1.26,0,0,0,.32-.4,2.52,2.52,0,0,0,.16-.4q.84-1,1.74-1.92a7.53,7.53,0,0,1,1.86-1.44,5.36,5.36,0,0,1,.92-.48l.88-.4.26-.16a.42.42,0,0,1,.3-.08,2.52,2.52,0,0,1,1.88.5,1.51,1.51,0,0,1,.44,1,.87.87,0,0,1-.28.36,1.47,1.47,0,0,0-.36.4,4.12,4.12,0,0,0-.36.38,1.34,1.34,0,0,0-.24.34,34.18,34.18,0,0,1-3.2,2.48,2.39,2.39,0,0,1-1.06.44,4.62,4.62,0,0,1-1.34,0,3.34,3.34,0,0,0-.48.62,3.45,3.45,0,0,0-.38.8,2,2,0,0,0-.12.84.93.93,0,0,0,.34.7,3,3,0,0,0,1.4-.16,10,10,0,0,1,1.16-.4l.92-.28c.32-.11.6-.22.84-.32.56-.27,1-.48,1.38-.64l1-.44,1-.44c.34-.16.78-.39,1.32-.68l1.3-.66,1.26-.66c.08-.06.11-.09.1-.1a0,0,0,0,0-.06,0s0,0,0,0,0,0,.16,0l.1,0a.16.16,0,0,1,.1,0,1.25,1.25,0,0,1,.48.06.18.18,0,0,1,.1.2.86.86,0,0,1-.16.32,3.82,3.82,0,0,0-.3.42s0,0-.1.1l-.32.2a2.9,2.9,0,0,0-.46.3c-.3.21-.66.44-1.08.68l-1.28.7-1.2.62-.84.4Zm-2.88-4.12a1.41,1.41,0,0,0,.7-.2l.66-.4c.53-.43,1.08-.9,1.64-1.42a20.29,20.29,0,0,0,1.52-1.58s.08,0,.08-.12a7.35,7.35,0,0,0-2.54,1.52A18,18,0,0,0,119.53,19.73Z"/></g></g></svg>