<svg xmlns="http://www.w3.org/2000/svg" viewBox="0 0 100.27 35.55"><defs><style>.cls-1{fill:#fff;}</style></defs><title>アセット 8</title><g id="レイヤー_2" data-name="レイヤー 2"><g id="レイヤー_1-2" data-name="レイヤー 1"><path class="cls-1" d="M21.75,27.79a1,1,0,0,1-.32.28.74.74,0,0,1-.36.16.68.68,0,0,1-.5.32.52.52,0,0,0-.42.32s0,0,0,0,0,0-.08,0a5.07,5.07,0,0,0-.62.4q-.37.29-.78.54l-.74.48a1.14,1.14,0,0,1-.46.22.48.48,0,0,1-.28.24l-.36.16-.56.34a3.36,3.36,0,0,1-.6.3,2.34,2.34,0,0,1-.92.52,22.54,22.54,0,0,1-7.3,3.28,6.86,6.86,0,0,1-5-.46A5.13,5.13,0,0,1,.13,31a16.08,16.08,0,0,1,.7-6.84c0-.08,0-.12,0-.12a.33.33,0,0,0,.1-.28A.23.23,0,0,1,1,23.55a.25.25,0,0,1,0-.3.35.35,0,0,0,.12-.3,1.26,1.26,0,0,0,.18-.32A5.27,5.27,0,0,0,1.63,22c.08-.22.16-.44.24-.64A1.42,1.42,0,0,0,2,21a5.52,5.52,0,0,0,.72-1.22,5.57,5.57,0,0,1,.64-1.14v-.16a12.85,12.85,0,0,1,1.16-2.3A38.15,38.15,0,0,1,6.71,13c.88-1.16,1.87-2.36,3-3.62S12,6.91,13.15,5.77a42.94,42.94,0,0,1,3.62-3.06A17.55,17.55,0,0,1,20.27.63,6.78,6.78,0,0,1,23.37,0a3.39,3.39,0,0,1,2.42,1.3,1.88,1.88,0,0,1,.48.68,6.78,6.78,0,0,1,.34,1,6.44,6.44,0,0,1,.18,1,4.09,4.09,0,0,1,0,.86,2,2,0,0,1-.12.58c-.08.26-.15.45-.2.58a2.37,2.37,0,0,1-.2.46,3.9,3.9,0,0,0-.2.42,8.12,8.12,0,0,1-.44,1,.3.3,0,0,1-.2.1c-.08,0-.09.05,0,.1a.33.33,0,0,0-.26.08.31.31,0,0,1-.14.12.44.44,0,0,1-.28,0,.49.49,0,0,0-.24,0,1.82,1.82,0,0,1-1.08-1,.83.83,0,0,1,.06-.84,5.25,5.25,0,0,0,.42-.68,1.4,1.4,0,0,0,.1-.36,1.66,1.66,0,0,1,.1-.36,7.79,7.79,0,0,0,.32-1,2.93,2.93,0,0,0,.08-1,.73.73,0,0,0-.38-.66,1.32,1.32,0,0,0-.94-.1,6.32,6.32,0,0,0-1,.32c-.32.14-.63.28-.94.44l-.9.48a7.12,7.12,0,0,1-1,.44.62.62,0,0,1-.32.32,2.12,2.12,0,0,0-.4.24,1.8,1.8,0,0,0-.42.28,1.91,1.91,0,0,1-.46.32.27.27,0,0,1-.18.1.4.4,0,0,0-.18.1q-.68.6-1.44,1.2a1.79,1.79,0,0,1-.44.34,2.46,2.46,0,0,0-.44.34,1.93,1.93,0,0,1-.42.44c-.17.14-.33.27-.46.4a.43.43,0,0,0-.16.2,1.38,1.38,0,0,1-.08.2L13.19,9a8.73,8.73,0,0,0-.68.68,1.48,1.48,0,0,0-.28.28,2.36,2.36,0,0,0-.2.32l-.16.08a.15.15,0,0,0,0,.12.06.06,0,0,1,0,.08c-.16.16-.42.47-.78.92s-.74.93-1.14,1.42-.77,1-1.12,1.44-.59.81-.72,1l-.14.3a.44.44,0,0,1-.18.22c-.45.67-.88,1.35-1.28,2s-.79,1.4-1.16,2.12a1.83,1.83,0,0,0-.34.58,1.31,1.31,0,0,1-.3.5h.08a.19.19,0,0,0-.1.12c0,.06-.05.07-.1,0,0,.14,0,.22,0,.26s-.09.12,0,.22a3.24,3.24,0,0,0-.46.88,4.16,4.16,0,0,1-.46,1,4.93,4.93,0,0,1-.38,1.14A3.85,3.85,0,0,0,2.83,26a.56.56,0,0,0-.12.32,1,1,0,0,1-.08.36c-.13.59-.25,1.17-.34,1.74a8.69,8.69,0,0,0-.06,1.94A3.49,3.49,0,0,0,2.65,32a3,3,0,0,0,1,1.18A2,2,0,0,0,5,33.39a7.42,7.42,0,0,0,1.42-.24,9.48,9.48,0,0,1,1-.26,6.34,6.34,0,0,0,1-.26,19.49,19.49,0,0,0,2.18-1c.71-.37,1.41-.72,2.1-1a4.15,4.15,0,0,1,.56-.3c.21-.09.43-.19.64-.3a1.44,1.44,0,0,1,.58-.32,1.07,1.07,0,0,0,.58-.4h.08l8-4.68c1.52-.88,2.91-1.66,4.18-2.36s2.35-1.25,3.24-1.68a13.61,13.61,0,0,1,2-.8c.41-.1.53,0,.34.24a8.7,8.7,0,0,1-1.6,1.4q-1.32,1-3.88,2.72c0,.08-.13.2-.4.36s-.49.3-.68.4c0,0,.05,0,.06,0a.08.08,0,0,1,.06,0c-.29.16-.66.39-1.1.68l-1.34.9c-.45.31-.89.59-1.3.84A9.72,9.72,0,0,1,21.75,27.79Z"/><path class="cls-1" d="M40,18.27a1.66,1.66,0,0,1,0,.62,1.23,1.23,0,0,1-.24.54c0,.14-.12.31-.2.52a2.44,2.44,0,0,1-.28.56,2.58,2.58,0,0,0-.58.82,1.71,1.71,0,0,1-.58.74,15,15,0,0,1-1.36,1.3,8.59,8.59,0,0,1-1.18.82,1.57,1.57,0,0,1-1.06.28,2.77,2.77,0,0,1-2.32-.14,2.21,2.21,0,0,1-.8-.72,2.35,2.35,0,0,1-.4-1.06.68.68,0,0,1,0-.3.35.35,0,0,1,.12-.3.74.74,0,0,1,0-.6,1.48,1.48,0,0,0,.14-.56l.72-2a.17.17,0,0,0,.14-.14.11.11,0,0,1,.1-.1,5.74,5.74,0,0,1,.66-1.12c.28-.37.57-.72.86-1s.34-.44.54-.68a4.84,4.84,0,0,1,.64-.64,1.87,1.87,0,0,1,.7-.36.77.77,0,0,1,.68.2,2.69,2.69,0,0,1,.68.24c0,.06.06.06.1,0a.11.11,0,0,1,.14,0,.71.71,0,0,1,.3,0l.46.12.44.16a1.09,1.09,0,0,1,.28.16l.4.56c.32-.08.82-.17,1.5-.28s1.39-.19,2.14-.26,1.44-.09,2.08-.08a2.94,2.94,0,0,1,1.4.3.13.13,0,0,0,.1,0,.18.18,0,0,1,.1,0,.1.1,0,0,0,.08,0c.16,0,.25,0,.26,0s.07.08.18.08.16.22.08.34a.69.69,0,0,1-.28.26,1.41,1.41,0,0,0-.54.12,1.21,1.21,0,0,1-.2.14.8.8,0,0,1-.34.08c-.16,0-.47,0-.92,0a9.88,9.88,0,0,0-1.18.08q-.62.09-1.26.24l-1.22.3-1,.26a1,1,0,0,0,0,.26Zm-2.88-1.92a1.14,1.14,0,0,0-.4-.08.5.5,0,0,1-.36-.16l-.12.12a1.58,1.58,0,0,0-.38.48,6.35,6.35,0,0,1-.34.6c-.13.16-.31.4-.52.72s-.43.66-.64,1-.41.71-.58,1a3.09,3.09,0,0,0-.3.78c-.08.35-.19.72-.32,1.12a1.46,1.46,0,0,0,.08,1.16,6,6,0,0,0,1.54-.8A8.34,8.34,0,0,0,36,21.27l.24-.28c.11-.18.31-.53.6-1a10.11,10.11,0,0,0,.74-1.56A3.79,3.79,0,0,0,37.89,17C37.88,16.56,37.63,16.35,37.15,16.35Z"/><path class="cls-1" d="M46.31,20.19a.72.72,0,0,0,.48-.26,2.67,2.67,0,0,1,.44-.38c.69-.61,1.36-1.22,2-1.84A12.71,12.71,0,0,1,51.47,16l1-.6a2.72,2.72,0,0,1,1.12-.36,1.6,1.6,0,0,1,.86.3A1,1,0,0,1,55,16a2.46,2.46,0,0,1-.1.92l-.26.92c0,.22-.09.56-.18,1s-.19,1-.28,1.52-.17,1-.22,1.52a5,5,0,0,0,0,1l.64-.28c.19-.08.41-.18.68-.32l.54-.24a.48.48,0,0,0,.14-.06L56,22s.23-.14.52-.3l.56-.46a2.8,2.8,0,0,1,.56-.34,1,1,0,0,1,.44-.08l.62-.36a1.74,1.74,0,0,0,.5-.36q.36.16.36.3a1,1,0,0,1-.08.34,2.4,2.4,0,0,1-.8.64,4.93,4.93,0,0,1-.4.44,1.33,1.33,0,0,1-.44.28l-.56.46-.18.16a1,1,0,0,1-.2.14l-.62.4a11.55,11.55,0,0,0-1,.62,3.62,3.62,0,0,1-1,.54,5.66,5.66,0,0,1-.74.12,4.7,4.7,0,0,1-.62,0c-.29.06-.55-.1-.78-.46a1.84,1.84,0,0,1-.34-1,5.72,5.72,0,0,1,.12-.82c.08-.41.17-.85.26-1.32s.19-.91.28-1.34.15-.72.18-.88a5.66,5.66,0,0,1,.16-1,8.63,8.63,0,0,0,.2-.88,1.55,1.55,0,0,0-.56.28l-.48.4c-.48.38-1,.75-1.4,1.12s-.91.79-1.36,1.24c-.27.24-.56.48-.88.72a8.64,8.64,0,0,0-.92.8c-.91,1-1.64,1.76-2.2,2.4s-1,1-1.24,1a1,1,0,0,1-.74-.16.92.92,0,0,1-.5-.56.9.9,0,0,1,.06-.48c.07-.21.14-.41.22-.6a13.55,13.55,0,0,1,1-3c.43-.89.83-1.82,1.2-2.78a2.18,2.18,0,0,1,.24-.44,1.94,1.94,0,0,0,.24-.44,5.23,5.23,0,0,0,.12-.54c0-.17.05-.32.08-.46a1.64,1.64,0,0,0,.18-.22,1.14,1.14,0,0,1,.22-.22,1.1,1.1,0,0,1,1-.16.78.78,0,0,1,.62.56,1,1,0,0,1,0,.84c-.13.24-.27.47-.4.68a1.61,1.61,0,0,0-.08.48,1.23,1.23,0,0,1-.08.44c-.16.38-.33.75-.5,1.12S46.47,19.74,46.31,20.19Z"/><path class="cls-1" d="M58.43,26.39h0q-.31-.15-.36-.36a1.75,1.75,0,0,1,0-.4,22.65,22.65,0,0,1,.34-2.88c.17-.93.37-1.82.58-2.68.27-1,.57-2.05.92-3s.67-2,1-3c.13-.4.26-.79.38-1.18s.25-.76.38-1.14a8.84,8.84,0,0,0-1,.22,10.05,10.05,0,0,0-1.14.46l-.54.18-.58.18c-.08.06-.17.12-.26.2a.63.63,0,0,1-.3.16l-.34.06q-.13,0-.18-.06a.4.4,0,0,1-.2-.36,2.59,2.59,0,0,1,.08-.56c0-.13.11-.26.18-.4s.13-.25.18-.36l.48-.2.78-.18c.33-.06.67-.14,1-.22l1-.2a5,5,0,0,1,.56-.08l.38-.08a1.51,1.51,0,0,0,.38-.12c.29-.82.61-1.64.94-2.44S63.66,6.3,64,5.47a10.25,10.25,0,0,0,.5-1.06c.15-.36.29-.71.42-1.06a2.29,2.29,0,0,0,.28-.6.46.46,0,0,0,.08-.24.3.3,0,0,1,.08-.2,1.14,1.14,0,0,1,.16-.38,1.51,1.51,0,0,0,.2-.46A3.81,3.81,0,0,0,65.89,1a.76.76,0,0,1,.18-.36,1.24,1.24,0,0,1,.52-.28,2.46,2.46,0,0,1,.76-.16,1.94,1.94,0,0,1,.8.18.76.76,0,0,1,.48.5.35.35,0,0,1,0,.34,2.58,2.58,0,0,1-.26.38,1.07,1.07,0,0,0-.1.32,1.4,1.4,0,0,1-.1.36c-.29.64-.57,1.3-.84,2a15.42,15.42,0,0,1-.92,1.92c-.27.59-.54,1.16-.82,1.72S65,9.05,64.75,9.63h0a8.1,8.1,0,0,1,1-.18c.32,0,.63-.08.92-.14l.88-.1a2.65,2.65,0,0,1,.4,0,1.46,1.46,0,0,0,.42,0c.17,0,.49,0,.94-.1l.9-.06a2.56,2.56,0,0,1,1,.18c0,.06-.07.1,0,.14s0,.09.08.14,0,0,0,0,0-.08,0-.08a.36.36,0,0,0-.08.24c0,.11,0,.18,0,.2a.7.7,0,0,1-.36.12.51.51,0,0,0-.28.08l0,.08c-1,.14-2,.27-3.14.4a29.91,29.91,0,0,0-3.22.56l-.12.4c-.45,1.42-.92,2.83-1.4,4.24s-.92,2.83-1.32,4.24a2.62,2.62,0,0,1-.24.64,2.75,2.75,0,0,0-.24.68,2,2,0,0,0-.26.72,2.25,2.25,0,0,1-.22.72.92.92,0,0,1-.14.2.36.36,0,0,0-.1.24,3.57,3.57,0,0,0-.12.4c0,.14-.05.27-.08.4a2.06,2.06,0,0,0,0,.44,1.11,1.11,0,0,1,0,.36l-.24.4a1.19,1.19,0,0,0-.08.4,1.75,1.75,0,0,1,0,.4c-.13.06-.19.1-.16.14s0,.08-.16.1a.62.62,0,0,1-.34.1A1.32,1.32,0,0,0,58.43,26.39Z"/><path class="cls-1" d="M76.83,19.91c.77-.29,1.23-.38,1.38-.26s.07.3-.22.54a.55.55,0,0,1-.3.16q-.18,0-.3.36a6.38,6.38,0,0,1-.84.66c-.16.1-.27.13-.32.1a4.91,4.91,0,0,0-1.16.72A10.91,10.91,0,0,1,74,23a4.6,4.6,0,0,1-1.16.56,2.58,2.58,0,0,1-1.46,0,.38.38,0,0,1-.18-.06l-.22-.1a1,1,0,0,1-.5-.38,3.31,3.31,0,0,1-.26-.5,3.91,3.91,0,0,1-.1-.78,5.06,5.06,0,0,1,.06-.94s-.09,0-.1,0,0,.06-.06.06l-.16.1-.2.14-.38.44a1.19,1.19,0,0,1-.46.32.52.52,0,0,1-.22.24,1.58,1.58,0,0,0-.22.16s0,0,0,.06,0,.06,0,.06l-.24.1a.45.45,0,0,0-.24.18,10.38,10.38,0,0,1-2,1.08,3.13,3.13,0,0,1-.58.34.94.94,0,0,1-.58.1h-.34a.82.82,0,0,1-.34-.08l-.64-.06a.69.69,0,0,1-.52-.26c-.29-.18-.37-.53-.24-1a0,0,0,0,1,0,0s0,0,0-.08a2,2,0,0,1,.26-.82c.15-.25.3-.48.46-.7a6.87,6.87,0,0,1,.72-1,12.52,12.52,0,0,0,.76-1c.21-.18.55-.49,1-.92s.93-.86,1.44-1.3,1-.82,1.4-1.16a2.88,2.88,0,0,1,.88-.54,2,2,0,0,0,.7-.5,1.69,1.69,0,0,1,.82-.46s0,0,0,0,0,0,0,0l.18,0a.16.16,0,0,0,.18-.06,1.25,1.25,0,0,0,.56.12,3.24,3.24,0,0,0,.36.38.56.56,0,0,1,.2.42.28.28,0,0,1,0,.32.45.45,0,0,1-.24.28.3.3,0,0,1-.28.1.61.61,0,0,0-.32.06,2.7,2.7,0,0,0-.76.48l-.48.32-.08.08a.65.65,0,0,0-.26.06.46.46,0,0,0-.22.3,2.31,2.31,0,0,0-.64.3c-.21.15-.43.29-.64.42a3.6,3.6,0,0,1-.36.34l-.36.3-.68.6c-.24.22-.47.43-.68.64a3.41,3.41,0,0,0-.38.38,1.13,1.13,0,0,1-.46.34.33.33,0,0,1-.16.28v.08a1,1,0,0,0-.38.34,3.19,3.19,0,0,1-.3.42,1.39,1.39,0,0,1-.32.64,1.18,1.18,0,0,0-.28.6,1.47,1.47,0,0,0,.64-.36c.91-.53,1.77-1.1,2.6-1.7s1.68-1.23,2.56-1.9a5,5,0,0,1,.7-.52,2.08,2.08,0,0,0,.66-.64h.12v0a.67.67,0,0,1,.12-.2.54.54,0,0,0,.12-.24.4.4,0,0,0,0-.2.3.3,0,0,1,.08-.2,1.11,1.11,0,0,1,.28,0h.76l.44.2c.19.08.28.27.28.56a2.55,2.55,0,0,1-.34.68l-.46.68a1.69,1.69,0,0,1-.28.64v.2a.55.55,0,0,0-.24.36c0,.14,0,.24-.06.32a1.33,1.33,0,0,1-.14.36l-.24.88c0,.35.07.55.2.6a.64.64,0,0,0,.5,0,4.17,4.17,0,0,0,.66-.34,5.9,5.9,0,0,1,.64-.34,6.44,6.44,0,0,0,1.4-.72C76,20.39,76.46,20.13,76.83,19.91Z"/><path class="cls-1" d="M83.71,21.71,85,21.23l.64-.24a1.73,1.73,0,0,0,.32-.14,1.62,1.62,0,0,1,.26-.12l.5-.16c.23-.06.58-.18,1.06-.34a7.59,7.59,0,0,1,.7-.38,5.24,5.24,0,0,1,.78-.3.37.37,0,0,1,.2,0h.24c.29-.1.47-.13.52-.08s.13.1.08.12a.14.14,0,0,0-.08.12.29.29,0,0,0,0,.12s-.06.08-.22.16a.23.23,0,0,1-.14.16l-.3.12a.35.35,0,0,0-.36.28l-.4.24-.5.36a4.75,4.75,0,0,1-.5.36,1.13,1.13,0,0,1-.4.2c-1.12.54-2.21,1-3.26,1.44s-2.14.83-3.26,1.2l-.44.14a4.34,4.34,0,0,0-.52.22.84.84,0,0,0-.3.08c-.12.06-.21.07-.26,0s-.09,0-.1,0l-.1,0a1.3,1.3,0,0,1-.82.12,2.64,2.64,0,0,0-.9,0,1.62,1.62,0,0,1-.64-.12,1.84,1.84,0,0,1-.48-.28,2.18,2.18,0,0,1-.76-1,2.58,2.58,0,0,1,.36-1.76,7.79,7.79,0,0,1,.66-1.06,6.08,6.08,0,0,1,.9-.94,5.72,5.72,0,0,1,.72-.74c.19-.14.45-.38.8-.7s.61-.51.94-.82.66-.62,1-.94a2.29,2.29,0,0,0,.48-.38,2.5,2.5,0,0,1,.56-.42l.3-.12.3-.12a.7.7,0,0,0,.32-.24.48.48,0,0,1,.4-.16,3,3,0,0,1,1.08.24,1,1,0,0,1,.24.46,2,2,0,0,1,.06.6,2.42,2.42,0,0,1-.1.56.48.48,0,0,1-.24.34l-.58.28a2.16,2.16,0,0,0-.46.36A.81.81,0,0,0,83,18a.45.45,0,0,0-.24.18,1.73,1.73,0,0,1-.3,0,.33.33,0,0,0-.26.06.37.37,0,0,1-.26.16.86.86,0,0,0-.38.24l-.64.52-.88.68c-.21.22-.43.42-.64.6a2.87,2.87,0,0,0-.52.6,2.76,2.76,0,0,0-.56.72c-.16.3-.29.58-.4.84s0,.61.4.62A5.36,5.36,0,0,0,80,22.93c.65-.17,1.34-.38,2.06-.64Z"/><path class="cls-1" d="M87.39,26.39h0c-.21-.1-.34-.22-.36-.36a1.75,1.75,0,0,1,0-.4,22.65,22.65,0,0,1,.34-2.88c.17-.93.37-1.82.58-2.68.27-1,.57-2.05.92-3s.66-2,1-3c.13-.4.26-.79.38-1.18s.25-.76.38-1.14a8.84,8.84,0,0,0-1,.22,10.05,10.05,0,0,0-1.14.46l-.54.18-.58.18c-.08.06-.17.12-.26.2a.68.68,0,0,1-.3.16l-.34.06q-.14,0-.18-.06a.4.4,0,0,1-.2-.36,2.59,2.59,0,0,1,.08-.56c.05-.13.11-.26.18-.4l.18-.36.48-.2.78-.18c.33-.06.67-.14,1-.22l1-.2a5,5,0,0,1,.56-.08l.38-.08a1.51,1.51,0,0,0,.38-.12c.29-.82.61-1.64.94-2.44S92.62,6.3,93,5.47a10.25,10.25,0,0,0,.5-1.06c.15-.36.29-.71.42-1.06a2.29,2.29,0,0,0,.28-.6.46.46,0,0,0,.08-.24.3.3,0,0,1,.08-.2,1.14,1.14,0,0,1,.16-.38,1.51,1.51,0,0,0,.2-.46A3.81,3.81,0,0,0,94.85,1,.76.76,0,0,1,95,.67a1.24,1.24,0,0,1,.52-.28,2.46,2.46,0,0,1,.76-.16,1.94,1.94,0,0,1,.8.18.78.78,0,0,1,.48.5.35.35,0,0,1,0,.34,3.69,3.69,0,0,1-.26.38,1.07,1.07,0,0,0-.1.32,1.4,1.4,0,0,1-.1.36c-.29.64-.58,1.3-.84,2a15.42,15.42,0,0,1-.92,1.92c-.27.59-.54,1.16-.82,1.72S94,9.05,93.71,9.63h0a8.1,8.1,0,0,1,1-.18c.32,0,.63-.08.92-.14l.88-.1a2.65,2.65,0,0,1,.4,0,1.45,1.45,0,0,0,.42,0c.17,0,.49,0,.94-.1l.9-.06a2.59,2.59,0,0,1,1,.18c-.05.06-.07.1,0,.14s0,.09.08.14,0,0,0,0,0-.08,0-.08a.36.36,0,0,0-.08.24c0,.11,0,.18,0,.2a.73.73,0,0,1-.36.12.51.51,0,0,0-.28.08l0,.08c-1,.14-2,.27-3.14.4a29.91,29.91,0,0,0-3.22.56l-.12.4c-.46,1.42-.92,2.83-1.4,4.24s-.92,2.83-1.32,4.24a2.62,2.62,0,0,1-.24.64,2.75,2.75,0,0,0-.24.68,2,2,0,0,0-.26.72,2.53,2.53,0,0,1-.22.72.92.92,0,0,1-.14.2.36.36,0,0,0-.1.24,1.64,1.64,0,0,0-.12.4c0,.14,0,.27-.08.4a2.06,2.06,0,0,0,0,.44,1.11,1.11,0,0,1,0,.36l-.24.4a1,1,0,0,0-.08.4,2.58,2.58,0,0,1,0,.4c-.13.06-.19.1-.16.14s0,.08-.16.1a.65.65,0,0,1-.34.1A1.23,1.23,0,0,0,87.39,26.39Z"/></g></g></svg>