<?xml version="1.0" encoding="utf-8"?>
<!-- Generator: Adobe Illustrator 22.1.0, SVG Export Plug-In . SVG Version: 6.00 Build 0)  -->
<svg version="1.1" xmlns="http://www.w3.org/2000/svg" xmlns:xlink="http://www.w3.org/1999/xlink" x="0px" y="0px"
	 viewBox="0 0 386.5 98.2" style="enable-background:new 0 0 386.5 98.2;" xml:space="preserve">
<g id="font-logo">
	<g>
		<path d="M56.2,63.2c-0.1,1.5-0.3,2.3-0.6,2.6c-0.3,0.3-0.6,0.4-1.1,0.3c-1.1-0.2-1.7-0.8-2-1.8c-0.1-0.3-0.2-0.6-0.1-1
			c0-0.4,0.1-0.8,0.2-1.2c0.2-1.3,0.5-2.9,1-5c0.5-2,1-4.2,1.6-6.3c0.6-2.2,1.1-4.2,1.7-6.2c0.5-2,1-3.5,1.4-4.5
			c0.9-2.6,1.8-5.2,2.6-7.6c0.8-2.4,1.6-4.9,2.2-7.6c-0.7,0.5-1.5,1-2.2,1.5c-0.7,0.5-1.4,1.1-2.2,1.6c-3.4,2.9-6.7,5.8-9.9,8.9
			c-3.1,3.1-6.2,6.3-9.3,9.7c-0.8,0.9-1.7,1.9-2.6,2.9c-0.9,1-1.8,2-2.6,3.1c-0.3,0.4-0.6,0.8-0.9,1.2c-0.3,0.4-0.6,0.7-1,0.8
			c-0.2,0.1-0.5,0.1-0.9,0.1c-0.4,0-0.7-0.1-1.1-0.1c-0.4-0.1-0.7-0.2-0.9-0.3c-0.3-0.1-0.4-0.3-0.5-0.5C29,53.8,29,53.6,29,53.4
			c0-0.3,0.1-0.5,0.1-0.8c0-0.6,0.1-1.3,0.2-1.9c0.1-0.7,0.2-1.3,0.4-1.9c0.1-0.6,0.3-1.2,0.4-1.8c0.1-0.6,0.3-1.2,0.5-1.7
			c0.4-1.2,0.7-2.4,1-3.5c0.3-1.1,0.6-2.3,1-3.4c0.7-2.4,1.4-4.7,2-6.9c0.7-2.2,1.2-4.5,1.7-7c-2.2,2.3-4.3,4.6-6.4,7
			c-2.1,2.4-4.1,4.9-6.1,7.6c-1.3,1.7-2.6,3.4-3.8,5.1c-1.3,1.7-2.5,3.5-3.6,5.4c-1.1,1.9-2.3,3.8-3.4,5.6c-1.1,1.8-2.2,3.7-3.3,5.7
			c-0.6,1.1-1,2.2-1.3,3.2c-0.2,0.5-0.3,1.1-0.4,1.7c-0.1,0.6-0.3,1.2-0.5,1.8c-0.6,0.9-1.4,1.5-2.5,1.6c-0.5,0.1-1,0.1-1.6-0.1
			c-0.6-0.1-1.1-0.3-1.6-0.6c-0.5-0.3-0.9-0.6-1.2-1C0.2,67.3,0,66.8,0,66.3c0-0.5,0.2-1.1,0.6-1.7c0.5-0.6,0.9-1.1,1.2-1.6
			c1.7-2.7,3.3-5.4,4.9-8.1c1.6-2.7,3.3-5.2,5.1-7.8c3.5-4.8,7.1-9.5,10.6-14.1c3.6-4.6,7.5-8.8,11.8-12.8c0.2-0.2,0.4-0.4,0.7-0.6
			c0.2-0.2,0.4-0.4,0.7-0.6c0.2-0.2,0.3-0.5,0.5-0.7c0.1-0.2,0.3-0.4,0.5-0.5c0.2-0.1,0.5-0.3,0.8-0.4c0.3-0.1,0.6-0.2,1-0.1
			c0.3,0,0.6,0.1,0.9,0.3c0.3,0.1,0.6,0.2,0.9,0.3c0.7,0.3,1.4,0.7,2,1.3c0.7,0.5,1,1.3,1,2.3c0,0.5-0.2,1-0.4,1.6
			c-0.2,0.6-0.4,1.1-0.5,1.6c-0.5,1.7-1,3.2-1.6,4.7c-0.6,1.4-1.1,2.9-1.7,4.5c-0.7,2.2-1.4,4.3-2,6.3c-0.6,2.1-1.2,4.1-1.9,6.2
			c0.7-0.5,1.3-1,1.8-1.6c0.5-0.6,1.1-1.2,1.7-1.7c2.8-2.9,5.7-5.8,8.7-8.7c3-2.8,6-5.6,9.2-8.2c0.6-0.5,1.2-1,1.9-1.6
			c0.6-0.5,1.3-1,2-1.5c0.6-0.5,1.3-0.9,2-1.4c0.7-0.4,1.4-0.9,2-1.5c0.4,0,0.7-0.1,1.1-0.2c0.4-0.1,0.7,0,1.1,0.1
			c0.2,0,0.5,0.3,1,0.7c0.4,0.4,0.7,0.8,0.8,1c0,0.4,0,0.7-0.2,1.1c-0.2,0.4-0.3,0.8-0.4,1.1c-0.3,1-0.6,2-1,3c-0.4,1-0.7,2-1.1,3
			c-0.4,1.4-0.9,2.8-1.3,4.1c-0.4,1.3-0.9,2.7-1.4,3.9c-0.5,1.4-1.1,3.2-1.7,5.4c-0.7,2.2-1.3,4.5-2,6.9c-0.7,2.4-1.3,4.7-1.9,7
			C56.9,59.9,56.4,61.7,56.2,63.2z"/>
		<path d="M86.7,50c1.3-0.5,2-0.6,2.3-0.4c0.2,0.2,0.1,0.5-0.4,0.9c-0.1,0.1-0.3,0.2-0.5,0.3c-0.2,0-0.4,0.2-0.5,0.6
			c-0.7,0.6-1.1,0.9-1.4,1.1c-0.3,0.2-0.4,0.2-0.5,0.2c-0.7,0.3-1.3,0.7-1.9,1.2c-0.6,0.5-1.2,0.9-1.7,1.3c-0.6,0.4-1.2,0.7-1.9,0.9
			c-0.7,0.2-1.5,0.2-2.4,0c-0.1,0-0.2,0-0.3-0.1c-0.1-0.1-0.2-0.1-0.4-0.2c-0.4-0.2-0.7-0.4-0.8-0.6c-0.2-0.2-0.3-0.5-0.4-0.8
			c-0.1-0.4-0.1-0.8-0.2-1.3c0-0.5,0-1,0.1-1.6c-0.1,0-0.1,0-0.2,0c0,0.1-0.1,0.1-0.1,0.1c-0.1,0-0.2,0.1-0.3,0.2
			c-0.1,0.1-0.2,0.1-0.3,0.2c-0.2,0.3-0.4,0.5-0.6,0.7c-0.2,0.2-0.5,0.4-0.8,0.5c-0.1,0.2-0.2,0.3-0.4,0.4c-0.2,0.1-0.3,0.2-0.4,0.3
			c0,0-0.1,0,0,0.1c0,0.1,0,0.1,0,0.1c-0.1,0-0.2,0.1-0.4,0.2c-0.2,0.1-0.3,0.2-0.4,0.3c-1,0.7-2.1,1.3-3.2,1.8
			c-0.3,0.2-0.6,0.4-1,0.6c-0.3,0.2-0.6,0.2-1,0.2c-0.2,0-0.4,0-0.6,0c-0.2,0-0.3,0-0.6-0.1c-0.4,0-0.7-0.1-1.1-0.1
			c-0.4,0-0.6-0.2-0.9-0.4c-0.5-0.3-0.6-0.9-0.4-1.7c0,0,0-0.1,0.1-0.1c0,0,0.1,0,0.1-0.1c0-0.5,0.2-0.9,0.4-1.4
			c0.2-0.4,0.5-0.8,0.8-1.2c0.4-0.6,0.7-1.2,1.2-1.7c0.4-0.5,0.9-1.1,1.3-1.7c0.4-0.3,0.9-0.8,1.6-1.5c0.7-0.7,1.5-1.4,2.4-2.1
			c0.8-0.7,1.6-1.4,2.3-1.9c0.7-0.5,1.2-0.8,1.5-0.9c0.5-0.2,0.9-0.5,1.2-0.8c0.3-0.3,0.7-0.6,1.4-0.8c0,0,0.1,0,0.1,0
			c0,0,0,0,0.1,0c0.1,0,0.2,0,0.3,0c0.1,0,0.2,0,0.3-0.1c0.3,0.1,0.6,0.2,0.9,0.2c0.2,0.2,0.4,0.4,0.6,0.6c0.2,0.2,0.3,0.4,0.3,0.7
			c0.1,0.1,0.2,0.3,0.1,0.5c-0.1,0.2-0.2,0.4-0.4,0.5c-0.1,0.1-0.3,0.2-0.5,0.2c-0.2,0-0.4,0-0.5,0.1c-0.4,0.2-0.9,0.4-1.3,0.8
			l-0.8,0.5l-0.1,0.1c-0.1,0-0.3,0-0.4,0.1c-0.2,0.1-0.3,0.2-0.4,0.5c-0.4,0.1-0.7,0.3-1.1,0.5c-0.4,0.2-0.7,0.5-1.1,0.7
			c-0.2,0.2-0.4,0.4-0.6,0.6c-0.2,0.2-0.4,0.3-0.6,0.5c-0.4,0.3-0.7,0.6-1.1,1c-0.4,0.4-0.8,0.7-1.1,1.1c-0.2,0.2-0.4,0.4-0.6,0.6
			c-0.2,0.2-0.5,0.4-0.8,0.6c0,0.2-0.1,0.3-0.3,0.5v0.1v0.1c-0.3,0.1-0.5,0.3-0.6,0.6c-0.2,0.2-0.3,0.5-0.5,0.7
			c-0.1,0.4-0.3,0.7-0.5,1.1c-0.3,0.3-0.4,0.6-0.5,1c0.4-0.1,0.8-0.3,1.1-0.6c1.5-0.9,2.9-1.8,4.3-2.8c1.4-1,2.8-2,4.2-3.1
			c0.4-0.4,0.8-0.6,1.2-0.9c0.4-0.2,0.7-0.6,1.1-1.1h0.2v-0.1c0-0.1,0.1-0.2,0.2-0.3c0.1-0.1,0.2-0.2,0.2-0.4c0-0.1,0.1-0.2,0.1-0.3
			c0-0.1,0-0.2,0.1-0.3c0.1,0,0.3-0.1,0.5-0.1c0.2,0,0.3,0,0.4,0h0.9c0.2,0.1,0.4,0.2,0.7,0.3c0.3,0.1,0.5,0.4,0.5,0.9
			c-0.1,0.4-0.3,0.8-0.6,1.1c-0.2,0.4-0.5,0.7-0.8,1.1c-0.1,0.4-0.2,0.7-0.5,1.1v0.3c-0.2,0.1-0.3,0.3-0.4,0.6
			c0,0.2-0.1,0.4-0.1,0.5c0,0.1-0.1,0.3-0.2,0.6l-0.4,1.5c0,0.6,0.1,0.9,0.3,1c0.2,0.1,0.5,0.1,0.8-0.1c0.3-0.1,0.7-0.3,1.1-0.6
			c0.4-0.2,0.7-0.4,1.1-0.6c0.7-0.3,1.5-0.7,2.3-1.2C85.3,50.8,86,50.4,86.7,50z"/>
		<path d="M129.2,51.8c0.2,0.1,0.4,0.1,0.7,0.1c0.3,0,0.6-0.1,0.8-0.1c0.2,0,0.3,0,0.3,0c0,0.1-0.2,0.2-0.6,0.5
			c-0.3,0.2-0.5,0.4-0.7,0.6c-0.2,0.2-0.4,0.3-0.7,0.6c0,0,0,0.1-0.1,0.2c0,0-0.1,0.1-0.1,0.1c-0.7,1-1.7,1.8-3.1,2.5
			c-1.4,0.7-3,1.2-4.9,1.7c-0.5,0.1-1,0.2-1.6,0.2c-0.6,0-1.1,0-1.7-0.2l-0.3-0.3c-0.3,0-0.5-0.1-0.7-0.2c-0.2-0.1-0.3-0.3-0.6-0.4
			c-0.1-0.2-0.2-0.5-0.3-0.7c-0.1-0.2-0.1-0.6-0.1-1c0-0.1,0-0.2,0-0.5c0-0.2,0-0.4,0.1-0.7c0-0.6,0.2-1.2,0.5-1.9
			c0.3-0.6,0.5-1.3,0.8-1.9c0.1-0.4,0.3-1,0.6-1.7s0.6-1.4,0.9-2.1c0.3-0.7,0.4-1.2,0.5-1.5c0.1-0.4-0.1-0.4-0.5-0.1
			c-0.2,0.2-0.5,0.4-0.7,0.5c-0.2,0.1-0.4,0.3-0.6,0.5c-0.4,0.2-0.7,0.4-1,0.6c-0.3,0.2-0.6,0.4-0.8,0.7c-0.7,0.4-1.2,0.9-1.6,1.3
			c-1.1,0.9-2,1.8-2.9,2.7c-0.9,0.9-1.8,1.8-2.7,2.6c-0.4,0.5-0.8,0.8-1.1,1.1c-0.2,0.3-0.4,0.5-0.6,0.6c-0.2,0.2-0.3,0.3-0.5,0.4
			c-0.2,0.1-0.4,0.1-0.6,0.2c-0.2,0-0.5,0-0.9,0c-0.3-0.1-0.6-0.2-0.9-0.1c-0.3-0.2-0.6-0.3-0.7-0.5c-0.2-0.1-0.3-0.3-0.4-0.4
			c-0.1-0.1-0.1-0.3-0.1-0.5c0-0.2,0.1-0.5,0.2-0.9c0,0-0.1-0.1-0.1-0.3c0-0.5,0-1.1,0.1-1.8c0.1-0.7,0.3-1.5,0.5-2.3
			c0.2-0.8,0.3-1.6,0.5-2.3c0.2-0.7,0.2-1.3,0.1-1.7c-0.1-0.4-0.3-0.7-0.6-0.7s-0.9,0.3-1.6,1c-1.3,1.1-2.5,2.2-3.8,3.4
			c-1.2,1.2-2.5,2.4-3.8,3.7c-0.5,0.5-0.9,1-1.4,1.6c-0.4,0.6-1,0.9-1.7,1.2c-0.1,0.2-0.3,0.4-0.5,0.7c-0.2,0.2-0.3,0.5-0.4,0.9
			c-0.2,0.4-0.4,0.8-0.5,1.2c-0.1,0.4-0.5,0.7-1.2,0.8c-0.4,0.1-0.8,0-1.3-0.2c-0.5-0.2-0.8-0.5-1-0.9c0-0.2,0-0.5,0.1-0.8
			c0.1-0.4,0.2-0.7,0.3-1c0.4-1.6,1-3.4,1.7-5.4c0.8-2,1.4-4.4,2-7.2c0.1-0.3,0.3-0.5,0.7-0.7c0.4-0.4,1-0.5,1.6-0.4
			c0.7,0.1,1.1,0.4,1.3,0.8c0.1,0.3,0.1,0.8,0,1.6c-0.2,0.8-0.4,1.6-0.6,2.4c-0.2,0.8-0.5,1.6-0.7,2.3c-0.2,0.7-0.4,1.1-0.4,1.3
			c0.3-0.1,0.6-0.2,0.8-0.5c0.2-0.2,0.5-0.4,0.7-0.7c1.1-1.1,2.3-2.3,3.3-3.4c1.1-1.1,2.3-2.2,3.7-3.2c0.5-0.3,1-0.7,1.7-1.1
			c0.6-0.4,1.3-0.6,1.9-0.7c0.5,0,1,0.1,1.6,0.4c0.5,0.3,0.9,0.7,1,1.1c0.2,1.4,0.2,2.8,0.1,4.2c-0.1,1.4-0.3,2.9-0.5,4.4
			c0.1,0,0.2-0.1,0.5-0.3c0.2-0.2,0.3-0.2,0.3-0.2c0.4-0.1,0.6-0.3,0.9-0.5c0.2-0.2,0.4-0.5,0.7-0.7c1.1-1.1,2.3-2.2,3.6-3.3
			c1.3-1,2.6-2,3.9-3c0.5-0.4,1.1-0.7,1.7-1c0.6-0.3,1.3-0.5,1.9-0.7c0.4-0.1,0.8-0.1,1.1,0c0.4,0.1,0.7,0.2,1.1,0.3
			c0.6,0.4,0.9,0.8,1,1.5c0,0.6-0.1,1.3-0.3,2c-0.3,0.7-0.6,1.4-1,2.2c-0.4,0.7-0.7,1.5-0.9,2.1c-0.4,0.6-0.6,1.2-0.7,1.7
			c-0.1,0.5-0.3,1.1-0.6,1.8c-0.1,0.2-0.2,0.5-0.3,0.8c-0.1,0.3-0.2,0.5-0.2,0.8c0,0.4,0.2,0.6,0.6,0.6c0.4,0,0.9-0.1,1.5-0.3
			c0.6-0.2,1.2-0.4,1.8-0.7c0.6-0.3,1.1-0.5,1.5-0.6c0.4-0.1,0.6-0.2,0.8-0.3c0.2,0,0.3-0.1,0.4-0.1c0.1,0,0.2-0.1,0.3-0.1
			c0.1,0,0.4-0.2,0.7-0.3c0.3-0.2,0.5-0.3,0.7-0.4c0.2-0.1,0.4-0.2,0.5-0.3c0.2-0.1,0.4-0.1,0.6-0.2C128.6,52.1,128.9,52,129.2,51.8
			z"/>
		<path d="M133.1,53.9c0.1,0.1,0.5,0.1,1.1-0.2c0.6-0.2,1.4-0.6,2.3-1c0.9-0.4,1.9-0.9,3-1.4c1.1-0.5,2.2-1,3.3-1.4
			c0.3-0.1,0.7-0.2,1.1-0.4c0.4-0.2,0.7-0.3,1-0.5c0.4-0.2,0.7-0.4,1.1-0.7c0.4-0.2,0.8-0.4,1.3-0.5c0.2,0,0.3-0.1,0.3-0.2
			c0-0.1,0-0.1,0.1,0.1c0.1,0,0.2,0.1,0.2,0c0,0,0.1,0,0.1,0c0,0.2-0.1,0.4-0.3,0.7L147,49c-0.4,0.3-0.7,0.6-1.1,0.9
			c-0.4,0.3-0.8,0.5-1.3,0.8c-0.4,0.4-0.9,0.7-1.4,1c-0.6,0.3-1.1,0.6-1.6,0.9c-0.5,0.2-1.2,0.6-2.1,1.2c-0.9,0.6-1.8,1.3-2.8,1.9
			c-1,0.7-1.9,1.2-2.7,1.7c-0.8,0.5-1.4,0.7-1.7,0.6c-0.1,0.1-0.2,0.2-0.3,0.2c0,0-0.1,0-0.3,0c-0.7,0-1.3-0.1-1.8-0.2
			c-0.5-0.2-0.9-0.5-1.3-1c-0.1-0.5-0.1-1.1,0-1.6c0.1-0.5,0.3-1.1,0.5-1.8c0.1-0.4,0.3-0.7,0.4-1c0.2-0.3,0.3-0.6,0.4-1
			c0.2-0.4,0.4-0.7,0.5-1.1c0.2-0.4,0.3-0.8,0.5-1.1c0.5-1,1-2,1.5-3.1c0.5-1,1.1-2,1.7-2.9c0.4-0.2,0.7-0.4,1-0.4
			c0.2-0.1,0.4-0.1,0.6,0c0.2,0.1,0.4,0.1,0.5,0c0.1,0.2,0.3,0.3,0.4,0.5c0.2,0.1,0.3,0.3,0.3,0.5c0,0.3,0.1,0.6,0.1,0.7
			c0,0.2,0,0.4-0.1,0.6c0,0.3,0,0.6-0.3,1c-0.1,0.1-0.2,0.3-0.2,0.4c0,0.2-0.1,0.3-0.2,0.5c0,0-0.1,0.1-0.1,0c0,0-0.1,0-0.1,0
			c-0.1,0-0.1,0.1-0.1,0.2c0,0.1,0,0.2-0.1,0.2c-0.3,0.6-0.6,1.3-1,1.9c-0.4,0.7-0.7,1.3-1,1.9c-0.3,0.6-0.5,1.1-0.7,1.6
			C132.9,53.4,132.9,53.7,133.1,53.9z M135.8,37.8c0-0.1,0.1-0.4,0.3-0.7c0.3-0.4,0.6-0.7,0.9-1c0.4-0.3,0.7-0.5,1.1-0.7
			c0.4-0.1,0.6-0.1,0.9,0.2c0.1,0,0.2,0,0.2,0.1c0.1,0,0.1,0.1,0.2,0.1c0.3,0.4,0.4,0.8,0.3,1.3c-0.1,0.5-0.3,0.8-0.7,1
			c0,0.1,0,0.1,0,0.2c0,0-0.1,0.1-0.1,0.2c-0.1-0.1-0.2,0-0.2,0.1c0,0.2-0.1,0.2-0.2,0.1c0,0.1,0,0.3-0.2,0.4
			c-0.2,0.1-0.2,0.3-0.2,0.4c-0.1,0-0.1-0.1-0.1,0c0,0,0,0-0.1,0c-0.1,0.2-0.3,0.4-0.6,0.5c-0.3,0.1-0.5,0.3-0.6,0.4
			c-0.1,0-0.2,0-0.2,0.1c-0.1,0-0.2,0-0.4-0.1c-0.3-0.1-0.4-0.2-0.5-0.4c-0.1-0.2-0.1-0.4-0.1-0.7c0-0.3,0.1-0.5,0.2-0.8
			C135.7,38.1,135.7,37.9,135.8,37.8z"/>
		<path d="M205.7,63.2c-0.1,1.5-0.3,2.3-0.6,2.6c-0.3,0.3-0.6,0.4-1.1,0.3c-1.1-0.2-1.7-0.8-2-1.8c-0.1-0.3-0.2-0.6-0.1-1
			c0-0.4,0.1-0.8,0.2-1.2c0.2-1.3,0.5-2.9,1-5c0.5-2,1-4.2,1.6-6.3c0.6-2.2,1.1-4.2,1.7-6.2c0.5-2,1-3.5,1.4-4.5
			c0.9-2.6,1.8-5.2,2.6-7.6c0.8-2.4,1.6-4.9,2.2-7.6c-0.7,0.5-1.5,1-2.2,1.5c-0.7,0.5-1.4,1.1-2.2,1.6c-3.4,2.9-6.7,5.8-9.9,8.9
			c-3.1,3.1-6.2,6.3-9.3,9.7c-0.8,0.9-1.7,1.9-2.6,2.9c-0.9,1-1.8,2-2.6,3.1c-0.3,0.4-0.6,0.8-0.9,1.2c-0.3,0.4-0.6,0.7-1,0.8
			c-0.2,0.1-0.5,0.1-0.9,0.1c-0.4,0-0.7-0.1-1.1-0.1c-0.4-0.1-0.7-0.2-0.9-0.3c-0.3-0.1-0.4-0.3-0.5-0.5c-0.1-0.1-0.1-0.3-0.1-0.6
			c0-0.3,0.1-0.5,0.1-0.8c0-0.6,0.1-1.3,0.2-1.9c0.1-0.7,0.2-1.3,0.4-1.9c0.1-0.6,0.3-1.2,0.4-1.8c0.1-0.6,0.3-1.2,0.5-1.7
			c0.4-1.2,0.7-2.4,1-3.5c0.3-1.1,0.6-2.3,1-3.4c0.7-2.4,1.4-4.7,2-6.9c0.7-2.2,1.2-4.5,1.7-7c-2.2,2.3-4.3,4.6-6.4,7
			c-2.1,2.4-4.1,4.9-6.1,7.6c-1.3,1.7-2.6,3.4-3.8,5.1c-1.3,1.7-2.5,3.5-3.6,5.4c-1.1,1.9-2.3,3.8-3.4,5.6c-1.1,1.8-2.2,3.7-3.3,5.7
			c-0.6,1.1-1,2.2-1.3,3.2c-0.2,0.5-0.3,1.1-0.4,1.7c-0.1,0.6-0.3,1.2-0.5,1.8c-0.6,0.9-1.4,1.5-2.5,1.6c-0.5,0.1-1,0.1-1.6-0.1
			c-0.6-0.1-1.1-0.3-1.6-0.6c-0.5-0.3-0.9-0.6-1.2-1c-0.3-0.4-0.5-0.8-0.5-1.3c0-0.5,0.2-1.1,0.6-1.7c0.5-0.6,0.9-1.1,1.2-1.6
			c1.7-2.7,3.3-5.4,4.9-8.1c1.6-2.7,3.3-5.2,5.1-7.8c3.5-4.8,7.1-9.5,10.6-14.1c3.6-4.6,7.5-8.8,11.8-12.8c0.2-0.2,0.4-0.4,0.7-0.6
			c0.2-0.2,0.4-0.4,0.7-0.6c0.2-0.2,0.3-0.5,0.5-0.7c0.1-0.2,0.3-0.4,0.5-0.5c0.2-0.1,0.5-0.3,0.8-0.4c0.3-0.1,0.6-0.2,1-0.1
			c0.3,0,0.6,0.1,0.9,0.3c0.3,0.1,0.6,0.2,0.9,0.3c0.7,0.3,1.4,0.7,2,1.3c0.7,0.5,1,1.3,1,2.3c0,0.5-0.2,1-0.4,1.6
			c-0.2,0.6-0.4,1.1-0.5,1.6c-0.5,1.7-1,3.2-1.6,4.7c-0.6,1.4-1.1,2.9-1.7,4.5c-0.7,2.2-1.4,4.3-2,6.3c-0.6,2.1-1.2,4.1-1.9,6.2
			c0.7-0.5,1.3-1,1.8-1.6c0.5-0.6,1.1-1.2,1.7-1.7c2.8-2.9,5.7-5.8,8.7-8.7c3-2.8,6-5.6,9.2-8.2c0.6-0.5,1.2-1,1.9-1.6
			c0.6-0.5,1.3-1,2-1.5c0.6-0.5,1.3-0.9,2-1.4c0.7-0.4,1.4-0.9,2-1.5c0.4,0,0.7-0.1,1.1-0.2c0.4-0.1,0.7,0,1.1,0.1
			c0.2,0,0.5,0.3,1,0.7c0.4,0.4,0.7,0.8,0.8,1c0,0.4,0,0.7-0.2,1.1c-0.2,0.4-0.3,0.8-0.4,1.1c-0.3,1-0.6,2-1,3c-0.4,1-0.7,2-1.1,3
			c-0.4,1.4-0.9,2.8-1.3,4.1c-0.4,1.3-0.9,2.7-1.4,3.9c-0.5,1.4-1.1,3.2-1.7,5.4c-0.7,2.2-1.3,4.5-2,6.9c-0.7,2.4-1.3,4.7-1.9,7
			C206.4,59.9,205.9,61.7,205.7,63.2z"/>
		<path d="M236.2,50c1.3-0.5,2-0.6,2.3-0.4c0.2,0.2,0.1,0.5-0.4,0.9c-0.1,0.1-0.3,0.2-0.5,0.3c-0.2,0-0.4,0.2-0.5,0.6
			c-0.7,0.6-1.1,0.9-1.4,1.1c-0.3,0.2-0.4,0.2-0.5,0.2c-0.7,0.3-1.3,0.7-1.9,1.2c-0.6,0.5-1.2,0.9-1.7,1.3c-0.6,0.4-1.2,0.7-1.9,0.9
			c-0.7,0.2-1.5,0.2-2.4,0c-0.1,0-0.2,0-0.3-0.1c-0.1-0.1-0.2-0.1-0.4-0.2c-0.4-0.2-0.7-0.4-0.8-0.6c-0.2-0.2-0.3-0.5-0.4-0.8
			c-0.1-0.4-0.1-0.8-0.2-1.3c0-0.5,0-1,0.1-1.6c-0.1,0-0.1,0-0.2,0c0,0.1-0.1,0.1-0.1,0.1c-0.1,0-0.2,0.1-0.3,0.2
			c-0.1,0.1-0.2,0.1-0.3,0.2c-0.2,0.3-0.4,0.5-0.6,0.7c-0.2,0.2-0.5,0.4-0.8,0.5c-0.1,0.2-0.2,0.3-0.4,0.4c-0.2,0.1-0.3,0.2-0.4,0.3
			c0,0-0.1,0,0,0.1c0,0.1,0,0.1,0,0.1c-0.1,0-0.2,0.1-0.4,0.2c-0.2,0.1-0.3,0.2-0.4,0.3c-1,0.7-2.1,1.3-3.2,1.8
			c-0.3,0.2-0.6,0.4-1,0.6c-0.3,0.2-0.6,0.2-1,0.2c-0.2,0-0.4,0-0.6,0c-0.2,0-0.3,0-0.6-0.1c-0.4,0-0.7-0.1-1.1-0.1
			c-0.4,0-0.6-0.2-0.9-0.4c-0.5-0.3-0.6-0.9-0.4-1.7c0,0,0-0.1,0.1-0.1c0,0,0.1,0,0.1-0.1c0-0.5,0.2-0.9,0.4-1.4
			c0.2-0.4,0.5-0.8,0.8-1.2c0.4-0.6,0.7-1.2,1.2-1.7c0.4-0.5,0.9-1.1,1.3-1.7c0.4-0.3,0.9-0.8,1.6-1.5c0.7-0.7,1.5-1.4,2.4-2.1
			c0.8-0.7,1.6-1.4,2.3-1.9c0.7-0.5,1.2-0.8,1.5-0.9c0.5-0.2,0.9-0.5,1.2-0.8c0.3-0.3,0.7-0.6,1.4-0.8c0,0,0.1,0,0.1,0
			c0,0,0,0,0.1,0c0.1,0,0.2,0,0.3,0c0.1,0,0.2,0,0.3-0.1c0.3,0.1,0.6,0.2,0.9,0.2c0.2,0.2,0.4,0.4,0.6,0.6c0.2,0.2,0.3,0.4,0.3,0.7
			c0.1,0.1,0.2,0.3,0.1,0.5c-0.1,0.2-0.2,0.4-0.4,0.5c-0.1,0.1-0.3,0.2-0.5,0.2c-0.2,0-0.4,0-0.5,0.1c-0.4,0.2-0.9,0.4-1.3,0.8
			l-0.8,0.5l-0.1,0.1c-0.1,0-0.3,0-0.4,0.1c-0.2,0.1-0.3,0.2-0.4,0.5c-0.4,0.1-0.7,0.3-1.1,0.5c-0.4,0.2-0.7,0.5-1.1,0.7
			c-0.2,0.2-0.4,0.4-0.6,0.6c-0.2,0.2-0.4,0.3-0.6,0.5c-0.4,0.3-0.7,0.6-1.1,1c-0.4,0.4-0.8,0.7-1.1,1.1c-0.2,0.2-0.4,0.4-0.6,0.6
			c-0.2,0.2-0.5,0.4-0.8,0.6c0,0.2-0.1,0.3-0.3,0.5v0.1v0.1c-0.3,0.1-0.5,0.3-0.6,0.6c-0.2,0.2-0.3,0.5-0.5,0.7
			c-0.1,0.4-0.3,0.7-0.5,1.1c-0.3,0.3-0.4,0.6-0.5,1c0.4-0.1,0.8-0.3,1.1-0.6c1.5-0.9,2.9-1.8,4.3-2.8c1.4-1,2.8-2,4.2-3.1
			c0.4-0.4,0.8-0.6,1.2-0.9c0.4-0.2,0.7-0.6,1.1-1.1h0.2v-0.1c0-0.1,0.1-0.2,0.2-0.3c0.1-0.1,0.2-0.2,0.2-0.4c0-0.1,0.1-0.2,0.1-0.3
			c0-0.1,0-0.2,0.1-0.3c0.1,0,0.3-0.1,0.5-0.1c0.2,0,0.3,0,0.4,0h0.9c0.2,0.1,0.4,0.2,0.7,0.3c0.3,0.1,0.5,0.4,0.5,0.9
			c-0.1,0.4-0.3,0.8-0.6,1.1c-0.2,0.4-0.5,0.7-0.8,1.1c-0.1,0.4-0.2,0.7-0.5,1.1v0.3c-0.2,0.1-0.3,0.3-0.4,0.6
			c0,0.2-0.1,0.4-0.1,0.5c0,0.1-0.1,0.3-0.2,0.6l-0.4,1.5c0,0.6,0.1,0.9,0.3,1c0.2,0.1,0.5,0.1,0.8-0.1c0.3-0.1,0.7-0.3,1.1-0.6
			c0.4-0.2,0.7-0.4,1.1-0.6c0.7-0.3,1.5-0.7,2.3-1.2C234.8,50.8,235.5,50.4,236.2,50z"/>
		<path d="M236.3,60.7L236.3,60.7c-0.4-0.2-0.6-0.4-0.7-0.6c0-0.2-0.1-0.4-0.1-0.7c0.1-1.6,0.3-3.2,0.6-4.8c0.3-1.5,0.6-3,1-4.4
			c0.4-1.7,0.9-3.4,1.5-5c0.6-1.6,1.1-3.3,1.6-5c0.2-0.7,0.4-1.3,0.6-1.9c0.2-0.6,0.4-1.3,0.6-1.9c-0.6,0.1-1.1,0.2-1.6,0.4
			c-0.5,0.2-1.1,0.4-1.9,0.8c-0.3,0.1-0.6,0.2-0.9,0.3c-0.3,0.1-0.6,0.2-1,0.3c-0.1,0.1-0.3,0.2-0.4,0.3c-0.2,0.1-0.3,0.2-0.5,0.3
			c-0.2,0-0.4,0.1-0.6,0.1c-0.2,0-0.3,0-0.3-0.1c-0.2-0.1-0.3-0.3-0.3-0.6s0-0.6,0.1-0.9c0.1-0.2,0.2-0.4,0.3-0.7
			c0.1-0.2,0.2-0.4,0.3-0.6l0.8-0.3c0.3-0.1,0.7-0.2,1.3-0.3c0.5-0.1,1.1-0.2,1.7-0.4c0.6-0.1,1.1-0.2,1.6-0.3
			c0.5-0.1,0.8-0.1,0.9-0.1c0.2,0,0.4-0.1,0.6-0.1c0.2,0,0.4-0.1,0.6-0.2c0.5-1.4,1-2.7,1.6-4c0.5-1.3,1.1-2.7,1.7-4
			c0.3-0.6,0.6-1.2,0.8-1.7c0.2-0.6,0.5-1.2,0.7-1.7c0.2-0.4,0.4-0.7,0.5-1c0.1-0.1,0.1-0.3,0.1-0.4s0-0.2,0.1-0.3
			c0-0.2,0.1-0.4,0.3-0.6c0.1-0.2,0.2-0.5,0.3-0.8c0.1-0.2,0.2-0.5,0.2-0.7c0.1-0.3,0.2-0.5,0.3-0.6c0.1-0.1,0.4-0.3,0.9-0.5
			c0.5-0.2,0.9-0.3,1.3-0.3c0.4,0,0.9,0.1,1.3,0.3c0.4,0.2,0.7,0.5,0.8,0.8c0.1,0.2,0.1,0.4,0,0.6c-0.1,0.2-0.3,0.4-0.4,0.6
			c-0.1,0.2-0.1,0.4-0.2,0.5c0,0.2-0.1,0.4-0.2,0.6c-0.5,1.1-0.9,2.1-1.4,3.2c-0.4,1.1-0.9,2.2-1.5,3.2c-0.4,1-0.9,1.9-1.4,2.8
			c-0.5,0.9-0.9,1.9-1.4,2.8h0.1c0.5-0.1,1.1-0.2,1.6-0.3c0.5-0.1,1-0.1,1.5-0.2c0.7-0.1,1.2-0.1,1.5-0.2c0.3,0,0.5,0,0.7,0
			c0.2,0,0.4,0,0.7,0c0.3,0,0.8-0.1,1.6-0.2c0.5,0,1-0.1,1.5-0.1c0.5,0,1,0.1,1.6,0.3c-0.1,0.1-0.1,0.2-0.1,0.2
			c0,0.1,0.1,0.1,0.1,0.2c0,0,0.1,0,0.1-0.1c0-0.1,0-0.1,0.1-0.1c-0.1,0.1-0.1,0.2-0.1,0.4c0,0.2,0,0.3-0.1,0.3
			c-0.2,0.1-0.4,0.2-0.6,0.2c-0.2,0-0.3,0-0.5,0.1l-0.1,0.1c-1.6,0.2-3.3,0.4-5.2,0.7c-1.9,0.2-3.6,0.5-5.3,0.9l-0.2,0.7
			c-0.7,2.3-1.5,4.7-2.3,7c-0.8,2.3-1.5,4.7-2.2,7c-0.1,0.4-0.2,0.7-0.4,1.1c-0.2,0.4-0.3,0.7-0.4,1.1c-0.2,0.4-0.4,0.7-0.4,1.2
			c-0.1,0.4-0.2,0.8-0.4,1.2c0,0.1-0.1,0.2-0.2,0.3c-0.1,0.1-0.2,0.3-0.2,0.4c-0.1,0.2-0.2,0.4-0.2,0.7c0,0.2-0.1,0.4-0.1,0.7
			c0,0.2-0.1,0.5-0.1,0.7c0,0.3,0,0.5-0.1,0.6l-0.4,0.7c-0.1,0.2-0.1,0.4-0.1,0.7c0,0.2,0,0.4-0.1,0.7c-0.2,0.1-0.3,0.2-0.3,0.2
			c0,0.1,0,0.1-0.3,0.2c-0.1,0.1-0.3,0.1-0.6,0.2C236.7,60.6,236.5,60.6,236.3,60.7z"/>
		<path d="M264.7,48.4c0.1,0,0.2,0,0.3,0c0.1,0,0.3-0.1,0.5-0.2h0.4l0.2-0.1h0.7c0.7,0.4,1,0.8,0.8,1.2c-0.2,0.3-0.5,0.5-1,0.6
			c-0.4,0.2-1,0.5-1.7,0.7c-0.7,0.3-1.5,0.5-2.2,0.8c-0.7,0.2-1.4,0.5-1.9,0.6c-0.6,0.2-0.9,0.3-1,0.3c0,0-0.1,0-0.1,0
			c0,0-0.1,0-0.2,0c-0.1,0-0.2,0.1-0.2,0.1c-0.6,1.2-1.1,2.1-1.4,2.5s-0.6,0.8-0.9,1.1l-0.4,0.3c-1,0.8-1.9,1.5-2.6,2.1
			c-0.7,0.6-1.4,1.1-1.9,1.5c-0.6,0.4-1,0.7-1.4,1c-0.4,0.2-0.7,0.4-1.1,0.6v-0.1c-0.9,0.5-1.7,0.8-2.3,1c-0.7,0.2-1.2,0.3-1.6,0.3
			c-0.9,0-1.5-0.2-1.8-0.6c-0.3-0.4-0.5-0.8-0.5-1.4c0-0.8,0.4-1.7,1.2-2.5c0.8-0.8,1.7-1.6,2.8-2.4c1.1-0.7,2.2-1.4,3.5-2
			c1.2-0.6,2.3-1.1,3.2-1.5c0.9-0.4,1.6-0.7,2-0.9c0.4-0.2,0.4-0.2-0.2-0.1l-0.3-0.1c-0.6,0-1.3,0-2.3,0.1c-1,0.1-1.9,0.2-2.8,0.4
			c-0.4,0.1-0.9,0.2-1.3,0.2c-0.4,0.1-0.9,0.1-1.5,0h0.1c0,0-0.1,0-0.1,0c0,0-0.1,0-0.1,0c-0.1,0-0.2,0-0.4-0.1
			c-0.2-0.1-0.3-0.1-0.3-0.2h0.1c-0.4-0.3-0.6-0.6-0.7-0.9c-0.1-0.3-0.2-0.6-0.2-0.9c0-0.3,0.1-0.5,0.2-0.7c0.1-0.2,0.2-0.4,0.3-0.5
			c0.2-0.4,0.5-0.7,0.9-1.1c0.4-0.4,0.9-0.8,1.5-1.5l0.2-0.2c0.5-0.4,1.1-0.7,1.6-1.2c0.6-0.4,1.2-0.8,1.8-1.2
			c0.6-0.4,1.2-0.7,1.9-1c0.6-0.3,1.3-0.5,1.9-0.5l0.5-0.1c0.3,0,0.5,0.1,0.9,0.2c0.3,0.1,0.6,0.2,0.8,0.3c0.2,0.4,0.3,0.7,0.2,0.9
			c-0.1,0.2-0.2,0.4-0.4,0.5l-0.7,0.4l-0.1,0.1c-0.1,0.1-0.3,0.2-0.6,0.3c0.1-0.1,0-0.1-0.2,0.1c-0.2,0.2-0.5,0.3-0.7,0.4
			c-0.4,0.4-0.8,0.6-1.5,0.8c-0.6,0.2-1.1,0.4-1.5,0.7l-0.7,0.4l-1,0.8l-0.6,0.5c-0.6,0.4-1.1,0.8-1.5,1.3c0.7-0.1,1.3-0.2,1.9-0.3
			c0.6-0.1,1.3-0.2,2.1-0.2c0.8-0.1,1.5-0.1,2.3,0c0.4,0,0.8,0.1,1.3,0.2c0.5,0.1,0.9,0.2,1.3,0.5h-0.1c0.5,0.3,0.7,0.4,0.8,0.5
			c0,0,0.1,0.1,0.1,0.1l0.1,0.1c0,0,0.1-0.1,0.1-0.1c0,0,0.1,0,0.2,0c0.1,0,0.1,0,0.2,0l0.3-0.1l4.7-1.4
			C264.3,48.5,264.4,48.5,264.7,48.4z M249,57.2c-0.1,0.1-0.4,0.3-0.8,0.7c-0.4,0.4-0.7,0.7-0.9,0.9c-0.4,0.2-0.6,0.5-0.9,0.7
			c-0.2,0.3-0.4,0.5-0.5,0.6c-0.1,0.2-0.1,0.3,0.2,0.3c0.3,0,0.6-0.1,1-0.3c0.4-0.2,0.8-0.3,1.2-0.5c0.4-0.2,0.7-0.3,0.8-0.4h-0.1
			l1.7-0.9c1.3-0.9,2.2-1.6,2.8-2.2c0.6-0.6,1.2-1.2,1.6-1.9l-0.8,0.3c-1.3,0.6-2.3,1.1-2.9,1.4c-0.6,0.3-1.1,0.5-1.5,0.8l-0.9,0.7
			L249,57.2z"/>
		<path d="M264.6,49.2c0.1-0.3,0.2-0.5,0.3-0.7s0.1-0.3,0.2-0.4c0-0.1,0.1-0.3,0.2-0.4c0.1-0.2,0.2-0.4,0.3-0.8
			c0.2-0.4,0.4-0.7,0.5-1.1c0.2-0.4,0.4-0.6,0.6-0.9c0-0.1,0-0.2,0-0.2c0-0.1,0-0.1,0-0.2c0-0.1,0.1-0.2,0.2-0.4
			c0.1-0.2,0.1-0.3,0.1-0.4c0.2-0.1,0.4-0.3,0.5-0.6c0.1-0.3,0.3-0.5,0.5-0.7c0-0.1-0.1-0.2,0-0.2c0,0,0-0.1,0-0.2
			c0.4-0.3,0.8-0.5,1.2-0.7c0.4-0.2,0.8-0.3,1.3-0.2c0.4,0.2,0.7,0.5,0.9,0.9c0.1,0.4,0.1,0.8-0.1,1.2c-0.2,0.4-0.4,0.7-0.6,0.9
			c-0.2,0.5-0.4,1-0.6,1.3c-0.2,0.3-0.3,0.6-0.4,1c-0.1,0.3-0.3,0.6-0.4,1c-0.2,0.4-0.4,0.8-0.6,1.4c-0.2,0.5-0.4,0.9-0.6,1.1
			c-0.2,0.2-0.4,0.6-0.7,1.2c0,0.2-0.2,0.6-0.4,1c-0.2,0.5-0.4,0.9-0.6,1.3c-0.1,0.4-0.1,0.6,0,0.8c0.1,0.1,0.5,0,1.2-0.5
			c1.5-1.1,3-2.3,4.3-3.6c1.3-1.3,2.7-2.7,4.1-4.1c0.2-0.2,0.4-0.5,0.7-0.9c0.3-0.4,0.5-0.7,0.8-1.1c0.3-0.4,0.5-0.7,0.7-1
			c0.2-0.3,0.4-0.5,0.5-0.6c0.1-0.1,0.3-0.3,0.6-0.4c0.3-0.1,0.5-0.1,0.8,0c0.2,0.1,0.4,0.4,0.6,0.7c0.2,0.4,0.2,1,0.1,1.7
			c-0.2,0.5-0.4,1-0.6,1.4c-0.2,0.4-0.3,0.8-0.4,1.3c-0.1,0.3-0.2,0.8-0.3,1.4c-0.1,0.6-0.2,1.2-0.3,1.8c-0.1,0.6-0.1,1.2,0,1.7
			c0,0.5,0.2,0.8,0.4,0.9c0.5,0.2,1,0.3,1.5,0.2c0.5-0.1,0.9-0.3,1.4-0.6c1.4-0.7,2.3-1.1,2.9-1.4c0.5-0.3,1-0.5,1.4-0.7
			c0.4-0.2,0.8-0.4,1.4-0.6c0.5-0.2,1.5-0.6,2.9-1.1c0,0-0.1,0.2-0.1,0.3c-0.1,0-0.1,0.1,0.1,0c0.1,0,0.2,0,0.3,0
			c-0.1,0.4-0.3,0.7-0.7,1c-0.4,0.3-0.7,0.5-1,0.8c0,0-0.2,0.1-0.3,0.3c-0.2,0.2-0.3,0.3-0.3,0.3l-3.8,2.4c-1,0.6-1.9,1.2-2.8,1.6
			c-0.8,0.5-1.3,0.7-1.5,0.7c-0.4,0.1-0.6,0.2-0.8,0.3c-0.2,0-0.4,0.1-0.8,0.2c-0.4,0.1-0.7,0.1-1.1,0.1c-0.4,0-0.6-0.1-0.9-0.2
			c-0.5-0.2-0.8-0.5-1-0.9c-0.2-0.4-0.3-0.9-0.3-1.5c0-0.5,0-1.1,0.1-1.6c0.1-0.5,0.2-1,0.2-1.4c0-0.3,0-0.5,0-0.7
			c0-0.2,0.1-0.4,0.2-0.6c-0.2,0.1-0.3,0.3-0.5,0.5c-0.1,0.2-0.3,0.3-0.5,0.4c-0.1,0.2-0.3,0.3-0.4,0.3c-0.1,0-0.2,0.1-0.3,0.1
			c-0.1,0-0.2,0.1-0.3,0.2c-0.1,0.1-0.2,0.2-0.3,0.4c-0.1,0-0.2,0-0.2,0.1c0,0-0.1,0.1-0.1,0.1c0,0-0.1,0.1-0.1,0.3
			c-0.5,0.4-0.9,0.8-1.3,1c-0.4,0.2-0.8,0.5-1.3,1c-0.4,0.2-0.7,0.5-0.9,0.8c-0.2,0.3-0.5,0.6-0.9,0.8c-0.2,0.3-0.5,0.5-0.9,0.6
			c0,0.1-0.1,0.2-0.2,0.3c-0.1,0.1-0.2,0.1-0.3,0.1c-0.1,0.3-0.3,0.5-0.5,0.6c-0.3,0.1-0.5,0.3-0.7,0.6c-1.7,0.3-2.8,0.1-3.4-0.4
			c-0.6-0.5-0.9-1.2-0.9-2.1c0-0.9,0.2-1.9,0.6-3C263.7,51.2,264.1,50.1,264.6,49.2z"/>
		<path d="M329.7,51.8c0.2,0.1,0.4,0.1,0.7,0.1c0.3,0,0.6-0.1,0.8-0.1c0.2,0,0.3,0,0.3,0s-0.2,0.2-0.6,0.5c-0.3,0.2-0.5,0.4-0.7,0.6
			c-0.2,0.2-0.4,0.3-0.7,0.6c0,0,0,0.1-0.1,0.2c0,0-0.1,0.1-0.1,0.1c-0.7,1-1.7,1.8-3.1,2.5c-1.4,0.7-3,1.2-4.9,1.7
			c-0.5,0.1-1,0.2-1.6,0.2c-0.6,0-1.1,0-1.7-0.2l-0.3-0.3c-0.3,0-0.5-0.1-0.7-0.2c-0.2-0.1-0.3-0.3-0.6-0.4
			c-0.1-0.2-0.2-0.5-0.3-0.7c-0.1-0.2-0.1-0.6-0.1-1c0-0.1,0-0.2,0-0.5c0-0.2,0-0.4,0.1-0.7c0-0.6,0.2-1.2,0.5-1.9
			c0.3-0.6,0.5-1.3,0.8-1.9c0.1-0.4,0.3-1,0.6-1.7s0.6-1.4,0.9-2.1c0.3-0.7,0.4-1.2,0.5-1.5c0.1-0.4-0.1-0.4-0.5-0.1
			c-0.2,0.2-0.5,0.4-0.7,0.5c-0.2,0.1-0.4,0.3-0.6,0.5c-0.4,0.2-0.7,0.4-1,0.6c-0.3,0.2-0.6,0.4-0.8,0.7c-0.7,0.4-1.2,0.9-1.6,1.3
			c-1.1,0.9-2,1.8-2.9,2.7c-0.9,0.9-1.8,1.8-2.7,2.6c-0.4,0.5-0.8,0.8-1.1,1.1c-0.2,0.3-0.4,0.5-0.6,0.6c-0.2,0.2-0.3,0.3-0.5,0.4
			c-0.2,0.1-0.4,0.1-0.6,0.2c-0.2,0-0.5,0-0.9,0c-0.3-0.1-0.6-0.2-0.9-0.1c-0.3-0.2-0.6-0.3-0.7-0.5c-0.2-0.1-0.3-0.3-0.4-0.4
			c-0.1-0.1-0.1-0.3-0.1-0.5c0-0.2,0.1-0.5,0.2-0.9c0,0-0.1-0.1-0.1-0.3c0-0.5,0-1.1,0.1-1.8c0.1-0.7,0.3-1.5,0.5-2.3
			c0.2-0.8,0.3-1.6,0.5-2.3c0.2-0.7,0.2-1.3,0.1-1.7c-0.1-0.4-0.3-0.7-0.6-0.7s-0.9,0.3-1.6,1c-1.3,1.1-2.5,2.2-3.8,3.4
			c-1.2,1.2-2.5,2.4-3.8,3.7c-0.5,0.5-0.9,1-1.4,1.6c-0.4,0.6-1,0.9-1.7,1.2c-0.1,0.2-0.3,0.4-0.5,0.7c-0.2,0.2-0.3,0.5-0.4,0.9
			c-0.2,0.4-0.4,0.8-0.5,1.2c-0.1,0.4-0.5,0.7-1.2,0.8c-0.4,0.1-0.8,0-1.3-0.2c-0.5-0.2-0.8-0.5-1-0.9c0-0.2,0-0.5,0.1-0.8
			c0.1-0.4,0.2-0.7,0.3-1c0.4-1.6,1-3.4,1.7-5.4c0.8-2,1.4-4.4,2-7.2c0.1-0.3,0.3-0.5,0.7-0.7c0.4-0.4,1-0.5,1.6-0.4
			c0.7,0.1,1.1,0.4,1.3,0.8c0.1,0.3,0.1,0.8,0,1.6c-0.2,0.8-0.4,1.6-0.6,2.4c-0.2,0.8-0.5,1.6-0.7,2.3c-0.2,0.7-0.4,1.1-0.4,1.3
			c0.3-0.1,0.6-0.2,0.8-0.5c0.2-0.2,0.5-0.4,0.7-0.7c1.1-1.1,2.3-2.3,3.3-3.4c1.1-1.1,2.3-2.2,3.7-3.2c0.5-0.3,1-0.7,1.7-1.1
			c0.6-0.4,1.3-0.6,1.9-0.7c0.5,0,1,0.1,1.6,0.4c0.5,0.3,0.9,0.7,1,1.1c0.2,1.4,0.2,2.8,0.1,4.2c-0.1,1.4-0.3,2.9-0.5,4.4
			c0.1,0,0.2-0.1,0.5-0.3c0.2-0.2,0.3-0.2,0.3-0.2c0.4-0.1,0.6-0.3,0.9-0.5c0.2-0.2,0.4-0.5,0.7-0.7c1.1-1.1,2.3-2.2,3.6-3.3
			c1.3-1,2.6-2,3.9-3c0.5-0.4,1.1-0.7,1.7-1c0.6-0.3,1.3-0.5,1.9-0.7c0.4-0.1,0.8-0.1,1.1,0c0.4,0.1,0.7,0.2,1.1,0.3
			c0.6,0.4,0.9,0.8,1,1.5c0,0.6-0.1,1.3-0.3,2c-0.3,0.7-0.6,1.4-1,2.2c-0.4,0.7-0.7,1.5-0.9,2.1c-0.4,0.6-0.6,1.2-0.7,1.7
			c-0.1,0.5-0.3,1.1-0.6,1.8c-0.1,0.2-0.2,0.5-0.3,0.8c-0.1,0.3-0.2,0.5-0.2,0.8c0,0.4,0.2,0.6,0.6,0.6c0.4,0,0.9-0.1,1.5-0.3
			c0.6-0.2,1.2-0.4,1.8-0.7c0.6-0.3,1.1-0.5,1.5-0.6c0.4-0.1,0.6-0.2,0.8-0.3c0.2,0,0.3-0.1,0.4-0.1c0.1,0,0.2-0.1,0.3-0.1
			c0.1,0,0.4-0.2,0.7-0.3c0.3-0.2,0.5-0.3,0.7-0.4c0.2-0.1,0.4-0.2,0.5-0.3c0.2-0.1,0.4-0.1,0.6-0.2S329.3,52,329.7,51.8z"/>
		<path d="M344.5,47.3c0,0.3,0,0.6-0.1,1c-0.1,0.4-0.2,0.7-0.4,0.9c-0.1,0.2-0.2,0.5-0.3,0.9c-0.1,0.4-0.3,0.7-0.5,0.9
			c-0.4,0.3-0.7,0.8-1,1.4c-0.3,0.6-0.6,1-1,1.2c-0.9,0.9-1.6,1.6-2.2,2.1c-0.6,0.5-1.3,1-1.9,1.4c-0.7,0.4-1.3,0.6-1.7,0.5
			c-0.7,0.3-1.4,0.4-2,0.3c-0.7-0.1-1.3-0.2-1.8-0.5c-0.5-0.3-1-0.7-1.3-1.2c-0.4-0.5-0.6-1.1-0.7-1.7c0-0.1-0.1-0.3-0.1-0.5
			c0-0.2,0.1-0.4,0.2-0.5c-0.1-0.3-0.1-0.6,0-1c0.2-0.4,0.2-0.7,0.2-0.9l1.2-3.4c0.1,0,0.2-0.1,0.2-0.2c0-0.1,0.1-0.2,0.2-0.2
			c0.3-0.6,0.6-1.2,1.1-1.8c0.5-0.6,0.9-1.2,1.4-1.7c0.3-0.4,0.6-0.7,0.9-1.1s0.7-0.7,1.1-1.1c0.4-0.3,0.8-0.5,1.2-0.6
			c0.4-0.1,0.8,0,1.1,0.3c0.4,0.1,0.8,0.2,1.1,0.4c0,0.1,0.1,0.1,0.2,0c0.1-0.1,0.1-0.1,0.2-0.1c0.1,0,0.3,0,0.5,0
			c0.2,0,0.5,0.1,0.8,0.2c0.3,0.1,0.5,0.2,0.7,0.3c0.2,0.1,0.4,0.2,0.5,0.3l0.7,0.9c0.5-0.1,1.4-0.3,2.5-0.5
			c1.1-0.2,2.3-0.3,3.5-0.4c1.2-0.1,2.4-0.2,3.4-0.1c1.1,0,1.8,0.2,2.3,0.5c0,0,0.1,0.1,0.2,0.1c0.1,0,0.1,0,0.2,0.1
			c0,0,0.1,0.1,0.1,0.1c0.3,0,0.4,0,0.4,0.1c0,0.1,0.1,0.1,0.3,0.1c0.2,0.2,0.3,0.4,0.1,0.6c-0.1,0.2-0.3,0.3-0.5,0.4
			c-0.5,0-0.8,0.1-0.9,0.2c-0.1,0.1-0.2,0.2-0.3,0.2c-0.1,0.1-0.3,0.1-0.6,0.1c-0.3,0-0.8,0-1.5,0c-0.6,0-1.3,0-1.9,0.1
			c-0.7,0.1-1.4,0.2-2.1,0.4c-0.7,0.2-1.4,0.3-2,0.5c-0.6,0.2-1.2,0.3-1.6,0.4c0,0.2-0.1,0.3-0.1,0.4
			C344.5,47.1,344.5,47.2,344.5,47.3z M339.7,44.2c-0.2-0.1-0.4-0.1-0.7-0.1c-0.2,0-0.4-0.1-0.6-0.3l-0.2,0.2
			c-0.3,0.2-0.5,0.5-0.6,0.8c-0.2,0.3-0.3,0.6-0.6,1c-0.2,0.3-0.5,0.7-0.9,1.2c-0.4,0.5-0.7,1.1-1.1,1.7c-0.4,0.6-0.7,1.2-1,1.7
			c-0.3,0.6-0.5,1-0.5,1.3c-0.1,0.6-0.3,1.2-0.5,1.8c-0.2,0.7-0.2,1.3,0.1,1.9c1-0.4,1.8-0.8,2.5-1.3c0.7-0.5,1.4-1.1,2-1.8l0.4-0.5
			c0.2-0.3,0.5-0.9,1-1.7c0.5-0.8,0.9-1.7,1.2-2.6c0.3-0.9,0.5-1.7,0.5-2.3C340.9,44.5,340.5,44.2,339.7,44.2z"/>
		<path d="M350,60.7L350,60.7c-0.4-0.2-0.6-0.4-0.7-0.6c0-0.2-0.1-0.4-0.1-0.7c0.1-1.6,0.3-3.2,0.6-4.8c0.3-1.5,0.6-3,1-4.4
			c0.4-1.7,0.9-3.4,1.5-5c0.6-1.6,1.1-3.3,1.6-5c0.2-0.7,0.4-1.3,0.6-1.9c0.2-0.6,0.4-1.3,0.6-1.9c-0.6,0.1-1.1,0.2-1.6,0.4
			c-0.5,0.2-1.1,0.4-1.9,0.8c-0.3,0.1-0.6,0.2-0.9,0.3c-0.3,0.1-0.7,0.2-1,0.3c-0.1,0.1-0.3,0.2-0.4,0.3c-0.2,0.1-0.3,0.2-0.5,0.3
			c-0.2,0-0.4,0.1-0.6,0.1c-0.2,0-0.3,0-0.3-0.1c-0.2-0.1-0.3-0.3-0.3-0.6s0-0.6,0.1-0.9c0.1-0.2,0.2-0.4,0.3-0.7
			c0.1-0.2,0.2-0.4,0.3-0.6l0.8-0.3c0.3-0.1,0.7-0.2,1.3-0.3c0.5-0.1,1.1-0.2,1.7-0.4c0.6-0.1,1.1-0.2,1.6-0.3
			c0.5-0.1,0.8-0.1,0.9-0.1c0.2,0,0.4-0.1,0.6-0.1c0.2,0,0.4-0.1,0.6-0.2c0.5-1.4,1-2.7,1.6-4c0.5-1.3,1.1-2.7,1.7-4
			c0.3-0.6,0.6-1.2,0.8-1.7c0.2-0.6,0.5-1.2,0.7-1.7c0.2-0.4,0.4-0.7,0.5-1c0.1-0.1,0.1-0.3,0.1-0.4s0-0.2,0.1-0.3
			c0-0.2,0.1-0.4,0.3-0.6c0.1-0.2,0.2-0.5,0.3-0.8c0.1-0.2,0.2-0.5,0.2-0.7c0.1-0.3,0.2-0.5,0.3-0.6c0.1-0.1,0.4-0.3,0.9-0.5
			c0.5-0.2,0.9-0.3,1.3-0.3c0.4,0,0.9,0.1,1.3,0.3c0.4,0.2,0.7,0.5,0.8,0.8c0.1,0.2,0.1,0.4,0,0.6c-0.1,0.2-0.3,0.4-0.4,0.6
			c-0.1,0.2-0.1,0.4-0.2,0.5c0,0.2-0.1,0.4-0.2,0.6c-0.5,1.1-0.9,2.1-1.4,3.2c-0.4,1.1-0.9,2.2-1.5,3.2c-0.4,1-0.9,1.9-1.4,2.8
			c-0.5,0.9-0.9,1.9-1.4,2.8h0.1c0.5-0.1,1.1-0.2,1.6-0.3c0.5-0.1,1-0.1,1.5-0.2c0.7-0.1,1.2-0.1,1.5-0.2c0.3,0,0.5,0,0.7,0
			c0.2,0,0.4,0,0.7,0c0.3,0,0.8-0.1,1.6-0.2c0.5,0,1-0.1,1.5-0.1c0.5,0,1,0.1,1.6,0.3c-0.1,0.1-0.1,0.2-0.1,0.2
			c0,0.1,0.1,0.1,0.1,0.2c0,0,0.1,0,0.1-0.1c0-0.1,0-0.1,0.1-0.1c-0.1,0.1-0.1,0.2-0.1,0.4c0,0.2,0,0.3-0.1,0.3
			c-0.2,0.1-0.4,0.2-0.6,0.2s-0.3,0-0.5,0.1l-0.1,0.1c-1.6,0.2-3.3,0.4-5.2,0.7c-1.9,0.2-3.6,0.5-5.3,0.9l-0.2,0.7
			c-0.7,2.3-1.5,4.7-2.3,7c-0.8,2.3-1.5,4.7-2.2,7c-0.1,0.4-0.2,0.7-0.4,1.1c-0.2,0.4-0.3,0.7-0.4,1.1c-0.2,0.4-0.4,0.7-0.4,1.2
			c-0.1,0.4-0.2,0.8-0.4,1.2c0,0.1-0.1,0.2-0.2,0.3c-0.1,0.1-0.2,0.3-0.2,0.4c-0.1,0.2-0.2,0.4-0.2,0.7c0,0.2-0.1,0.4-0.1,0.7
			c0,0.2-0.1,0.5-0.1,0.7c0,0.3,0,0.5-0.1,0.6l-0.4,0.7c-0.1,0.2-0.1,0.4-0.1,0.7c0,0.2,0,0.4-0.1,0.7c-0.2,0.1-0.3,0.2-0.3,0.2
			c0,0.1,0,0.1-0.3,0.2c-0.1,0.1-0.3,0.1-0.6,0.2C350.4,60.6,350.2,60.6,350,60.7z"/>
		<path d="M374.9,47.3c0,0.3,0,0.6-0.1,1c-0.1,0.4-0.2,0.7-0.4,0.9c-0.1,0.2-0.2,0.5-0.3,0.9c-0.1,0.4-0.3,0.7-0.5,0.9
			c-0.4,0.3-0.7,0.8-1,1.4c-0.3,0.6-0.6,1-1,1.2c-0.9,0.9-1.6,1.6-2.2,2.1c-0.6,0.5-1.3,1-1.9,1.4c-0.7,0.4-1.3,0.6-1.7,0.5
			c-0.7,0.3-1.4,0.4-2,0.3c-0.7-0.1-1.3-0.2-1.8-0.5c-0.5-0.3-1-0.7-1.3-1.2c-0.4-0.5-0.6-1.1-0.7-1.7c0-0.1-0.1-0.3-0.1-0.5
			c0-0.2,0.1-0.4,0.2-0.5c-0.1-0.3-0.1-0.6,0-1c0.2-0.4,0.2-0.7,0.2-0.9l1.2-3.4c0.1,0,0.2-0.1,0.2-0.2c0-0.1,0.1-0.2,0.2-0.2
			c0.3-0.6,0.6-1.2,1.1-1.8c0.5-0.6,0.9-1.2,1.4-1.7c0.3-0.4,0.6-0.7,0.9-1.1s0.7-0.7,1.1-1.1c0.4-0.3,0.8-0.5,1.2-0.6
			c0.4-0.1,0.8,0,1.1,0.3c0.4,0.1,0.8,0.2,1.1,0.4c0,0.1,0.1,0.1,0.2,0c0.1-0.1,0.1-0.1,0.2-0.1c0.1,0,0.3,0,0.5,0
			c0.2,0,0.5,0.1,0.8,0.2c0.3,0.1,0.5,0.2,0.7,0.3c0.2,0.1,0.4,0.2,0.5,0.3l0.7,0.9c0.5-0.1,1.4-0.3,2.5-0.5
			c1.1-0.2,2.3-0.3,3.5-0.4c1.2-0.1,2.4-0.2,3.4-0.1c1.1,0,1.8,0.2,2.3,0.5c0,0,0.1,0.1,0.2,0.1c0.1,0,0.1,0,0.2,0.1
			c0,0,0.1,0.1,0.1,0.1c0.3,0,0.4,0,0.4,0.1c0,0.1,0.1,0.1,0.3,0.1c0.2,0.2,0.3,0.4,0.1,0.6c-0.1,0.2-0.3,0.3-0.5,0.4
			c-0.5,0-0.8,0.1-0.9,0.2c-0.1,0.1-0.2,0.2-0.3,0.2c-0.1,0.1-0.3,0.1-0.6,0.1c-0.3,0-0.8,0-1.5,0c-0.6,0-1.3,0-1.9,0.1
			c-0.7,0.1-1.4,0.2-2.1,0.4c-0.7,0.2-1.4,0.3-2,0.5c-0.6,0.2-1.2,0.3-1.6,0.4c0,0.2-0.1,0.3-0.1,0.4
			C374.9,47.1,374.9,47.2,374.9,47.3z M370.2,44.2c-0.2-0.1-0.4-0.1-0.7-0.1c-0.2,0-0.4-0.1-0.6-0.3l-0.2,0.2
			c-0.3,0.2-0.5,0.5-0.6,0.8c-0.2,0.3-0.3,0.6-0.6,1c-0.2,0.3-0.5,0.7-0.9,1.2c-0.4,0.5-0.7,1.1-1.1,1.7c-0.4,0.6-0.7,1.2-1,1.7
			c-0.3,0.6-0.5,1-0.5,1.3c-0.1,0.6-0.3,1.2-0.5,1.8c-0.2,0.7-0.2,1.3,0.1,1.9c1-0.4,1.8-0.8,2.5-1.3c0.7-0.5,1.4-1.1,2-1.8l0.4-0.5
			c0.2-0.3,0.5-0.9,1-1.7c0.5-0.8,0.9-1.7,1.2-2.6c0.3-0.9,0.5-1.7,0.5-2.3C371.4,44.5,371,44.2,370.2,44.2z"/>
	</g>
</g>
<g id="pass">
</g>
</svg>
