<svg xmlns="http://www.w3.org/2000/svg" viewBox="0 0 72.4 36.58"><defs><style>.cls-1{fill:#555;}</style></defs><title>アセット 6</title><g id="レイヤー_2" data-name="レイヤー 2"><g id="レイヤー_1-2" data-name="レイヤー 1"><path class="cls-1" d="M16.24,30.87l-2.92,1.58-1.14.6-.18.1c.06,0,0,0-.08,0a5.89,5.89,0,0,0-.84.36l-2.4,1.16c0-.08-.2,0-.7.16l-1.76.66c-.68.25-1.36.49-2.06.72a5.87,5.87,0,0,1-1.64.34.88.88,0,0,1-.54,0,2.63,2.63,0,0,0-.5-.18H1a1.86,1.86,0,0,1-.48-.06.72.72,0,0,1-.36-.24A.89.89,0,0,1,0,35.51a1.78,1.78,0,0,1,.38-1.22l.82-1.06a44.45,44.45,0,0,1,4.94-4.82,35.37,35.37,0,0,1,5.24-3.6,44.35,44.35,0,0,1,5.78-2.72q3-1.18,6.52-2.22a2.53,2.53,0,0,0-.24-1.42,3.6,3.6,0,0,0-.76-1.14,8.68,8.68,0,0,0-2.16-1.16,7.27,7.27,0,0,0-2.72-.52,28.32,28.32,0,0,0-3.44.12c-1.14.1-2.32.22-3.52.36-.37.05-.76.08-1.16.1A3,3,0,0,1,8.56,16l-.32-.12a2,2,0,0,0-.36-.16,3.16,3.16,0,0,0-.62-.16,1.79,1.79,0,0,1-.58-.24,3.73,3.73,0,0,1-.52-.6,1.7,1.7,0,0,1-.28-1,3.69,3.69,0,0,1,.24-1.26,7.68,7.68,0,0,1,.52-1.14,7.29,7.29,0,0,1,.66-1.08L8,9.47a27.06,27.06,0,0,1,7.16-6,13.07,13.07,0,0,1,2.26-1.18A10.69,10.69,0,0,1,20,1.59a3.33,3.33,0,0,1,.76-.1l.8-.06A13.28,13.28,0,0,1,23,1.35a1.62,1.62,0,0,1,1.16.44.71.71,0,0,1,.28.24.86.86,0,0,0,.44.24,1,1,0,0,1,0,.54,4.1,4.1,0,0,1-.14.5c.11,0,.16,0,.14,0s0-.08.06,0a4.39,4.39,0,0,1-.2.76,7.77,7.77,0,0,0-.24.76c-.18.48-.34.86-.48,1.16q-.12.19-.24.42a1.48,1.48,0,0,0-.16.46c-.18-.06-.28,0-.28.06a.42.42,0,0,1-.08.26.7.7,0,0,0-.38,0,1.16,1.16,0,0,1-.38.06l-.16-.06s-.08,0-.16,0a.49.49,0,0,0-.28.18c-.08.09-.18.1-.32,0a4.25,4.25,0,0,1,0-1,7.73,7.73,0,0,1,.22-.86c.1-.28.19-.56.28-.84a5.17,5.17,0,0,0,.22-.86A7.8,7.8,0,0,0,20.8,4a7.5,7.5,0,0,0-1.48.44,5.32,5.32,0,0,0-1,.48,8.07,8.07,0,0,1-1,.52,28.19,28.19,0,0,0-3.72,2.12,2.78,2.78,0,0,0-.78.64l-.66.8a23.29,23.29,0,0,0-2,2.36,8.93,8.93,0,0,0-1.38,2.88,1,1,0,0,0,.72.12,32.69,32.69,0,0,0,3.66-.14,24.34,24.34,0,0,1,3.58-.1,21.46,21.46,0,0,1,3.08.36,10.94,10.94,0,0,1,2.7.84,6.48,6.48,0,0,1,2.1,1.48A6.16,6.16,0,0,1,26,19.11c1-.24,1.82-.43,2.58-.56s1.51-.25,2.24-.34S32.3,18,33.12,18L36,17.71c0,.08,0,.11-.12.1a.12.12,0,0,0-.16.06A.35.35,0,0,0,36,18a2.72,2.72,0,0,0,.42,0,3.62,3.62,0,0,0-.62.26,2,2,0,0,1-.74.18.3.3,0,0,0,.26,0,1.42,1.42,0,0,1,.34,0,.83.83,0,0,1-.62.24,3.19,3.19,0,0,0-.82.12.63.63,0,0,0,.44,0,.17.17,0,0,0,0,.12,4.55,4.55,0,0,1-.9.22l-1,.14-2,.42-.74.12a.38.38,0,0,0-.22.06,3.6,3.6,0,0,1-.52.2,1,1,0,0,0-.16.1.32.32,0,0,1-.2.06,4,4,0,0,1-1,.28,3.43,3.43,0,0,0-1,.28l-.24.16a1.29,1.29,0,0,1-.48.16.5.5,0,0,0-.4.24,8.15,8.15,0,0,1-.48,1.1c-.18.36-.38.71-.6,1.06l-.44.6a5,5,0,0,1-.52.6,12.51,12.51,0,0,1-.92,1,25.42,25.42,0,0,1-2.72,2.36.68.68,0,0,0-.26.22.46.46,0,0,1-.3.18s-.06.05,0,.08,0,.06-.08.12a4.46,4.46,0,0,0-.66.44,2.59,2.59,0,0,1-.74.4,3.2,3.2,0,0,1-.78.7ZM22.8,22a.22.22,0,0,0-.12,0l-.08,0a.67.67,0,0,0,.32-.28l-2.56,1-2,.78c-.58.24-1.14.49-1.68.76s-1.1.56-1.7.88-1.26.7-2,1.16L10.48,28c-1,.69-1.69,1.23-2.2,1.62s-.93.73-1.28,1l-1,.9-1.34,1.2a1,1,0,0,0-.3.38,1.22,1.22,0,0,1-.26.38c-.16.21.15.22.92,0a28.32,28.32,0,0,0,3.08-1q1.92-.72,4.28-1.82a39.39,39.39,0,0,0,4.52-2.48,24.38,24.38,0,0,0,3.8-3A7.43,7.43,0,0,0,22.8,22Zm9.08-2.64a.65.65,0,0,0-.32,0,.19.19,0,0,1,.18,0C31.81,19.41,31.86,19.4,31.88,19.35Zm2.92-.64s0,0,0,0,0,0,0,0,0,0,0,0S34.78,18.71,34.8,18.71Z"/><path class="cls-1" d="M48.64,20.59s0,0,0,0,.14,0,.16.08.06.13,0,.24-.05.17,0,.2a5.39,5.39,0,0,0-.86.4,4.2,4.2,0,0,1-.86.36,5.28,5.28,0,0,0-1.2.46,6.15,6.15,0,0,1-1.24.46,34.66,34.66,0,0,0-3.82,1,10.29,10.29,0,0,1-2.52.6,1.13,1.13,0,0,1-1.24-.62,5.75,5.75,0,0,1,0-2.64A2.7,2.7,0,0,1,37.52,20a4.14,4.14,0,0,0,.56-1.2l-.24.08a.47.47,0,0,0-.24.2c-.05,0-.08,0-.1,0a.16.16,0,0,1-.1,0c-.82.82-1.65,1.61-2.48,2.36a.82.82,0,0,0-.42.26A.81.81,0,0,1,34,22a1,1,0,0,1-.24.36l-.32.32a.69.69,0,0,1-.2.52c-.16.45-.32.92-.48,1.42A11.64,11.64,0,0,1,32.24,26a3.41,3.41,0,0,1-1,.52,1,1,0,0,1-.58,0,.72.72,0,0,1-.32-.3,1.52,1.52,0,0,0-.18-.32c-.05-.06,0-.3.14-.72s.32-.9.52-1.42l.58-1.48c.19-.47.31-.78.36-.94l.72-1.68c.08-.24.17-.48.26-.72l.3-.72A.23.23,0,0,1,33.2,18a2.11,2.11,0,0,0,.12-.48.76.76,0,0,1,.2-.4c0-.08,0-.14,0-.16l.14-.12c.19-.59.41-1.18.66-1.78a9.33,9.33,0,0,0,.58-1.86.12.12,0,0,0,0-.08,1.05,1.05,0,0,0,.28-.52,3,3,0,0,1,.2-.56l.48-1.24a2.59,2.59,0,0,0,.44-.92A3.82,3.82,0,0,1,36.72,9a2.8,2.8,0,0,1,.22-.58,2.25,2.25,0,0,0,.22-.58c.14-.3.26-.56.38-.78a4.41,4.41,0,0,0,.3-.74v0s0,0,0,0c0-.14,0-.25.06-.34a1.18,1.18,0,0,1,.1-.3l.12-.24a2.21,2.21,0,0,0,.16-.4l.2-.4,0-.16.08-.32A.12.12,0,0,1,38.7,4a.29.29,0,0,0,.1-.12v-.2a.82.82,0,0,1,.14-.28.47.47,0,0,0,.1-.32c.06-.14.11-.28.16-.42s.11-.3.16-.46a2.15,2.15,0,0,0,.26-.76,1.84,1.84,0,0,1,.3-.76,2.15,2.15,0,0,0,.62-.28,1,1,0,0,1,.86,0l.16.14a.34.34,0,0,0,.2.06,1.87,1.87,0,0,1,.56.48,2,2,0,0,1,.42.72,2.14,2.14,0,0,1,.14.78,1,1,0,0,1-.24.66,4.26,4.26,0,0,1-.48,1,5,5,0,0,0-.48,1,.64.64,0,0,0-.24.42.91.91,0,0,1-.2.46,1.36,1.36,0,0,1-.2.4.91.91,0,0,0-.16.4c-.05,0-.08,0-.08,0s0,0,0,0a.22.22,0,0,1,0,.16.06.06,0,0,0,0,.08,1.32,1.32,0,0,0-.26.4.9.9,0,0,1-.18.32c-.1.24-.21.47-.32.7a7.81,7.81,0,0,1-.36.7,1.39,1.39,0,0,0-.28.68l-.16.16a.23.23,0,0,0-.08.16,1.88,1.88,0,0,0-.12.3.38.38,0,0,1-.16.22.82.82,0,0,1-.14.38,2.1,2.1,0,0,0-.18.34,1.34,1.34,0,0,0-.12.24.68.68,0,0,1-.12.24,1.75,1.75,0,0,0-.12.32.67.67,0,0,1-.2.32,1.93,1.93,0,0,1-.2.72,6,6,0,0,1-.36.64c0,.05,0,.08,0,.08s0,0,0,.08a.67.67,0,0,1-.06.12.29.29,0,0,0,0,.12A.91.91,0,0,0,37,15a5.62,5.62,0,0,0-.58,1.18,4,4,0,0,1-.58,1.1c-.1.29-.2.56-.28.8a3.78,3.78,0,0,1-.32.72,5.2,5.2,0,0,0,.72-.5l.68-.54c.46-.4.92-.79,1.4-1.16s1-.74,1.48-1.08l.78-.48a2.2,2.2,0,0,1,.86-.36.88.88,0,0,1,.46-.06,2.72,2.72,0,0,1,.46.06,3.89,3.89,0,0,1,.5.38.92.92,0,0,1,.34.54.88.88,0,0,0,.22.26c.07,0,.1.12.1.26a.37.37,0,0,1-.18.32l-.3.2a.42.42,0,0,1-.26.26.59.59,0,0,0-.3.22,2.93,2.93,0,0,0-.9.76,3,3,0,0,1-.9.76,6.81,6.81,0,0,0-.68.6,6.05,6.05,0,0,0-1.16,1.62,1.33,1.33,0,0,0-.12.82c0,.37.05.58.3.64a5,5,0,0,0,.94.08,11,11,0,0,0,1.5-.18l1.46-.3,2.14-.48c.58-.14,1.08-.26,1.5-.38l1.16-.3A11.13,11.13,0,0,1,48.64,20.59Z"/><path class="cls-1" d="M50,22.39c.08.08.31,0,.68-.1s.84-.35,1.38-.6l1.82-.86c.67-.32,1.34-.6,2-.84l.66-.24a4.59,4.59,0,0,0,.58-.28l.64-.4a2,2,0,0,1,.76-.28c.11,0,.16-.08.16-.14s0,0,0,.06.1,0,.12,0a.05.05,0,0,1,.08,0,.84.84,0,0,1-.2.44l-.28.24c-.21.18-.44.36-.68.54a5.08,5.08,0,0,1-.8.46,5,5,0,0,1-.86.6l-1,.52a6,6,0,0,0-1.26.72l-1.72,1.16c-.6.4-1.15.75-1.66,1.06s-.85.42-1,.34c-.08.08-.13.11-.16.1s-.08,0-.16,0a4,4,0,0,1-1.1-.14,1.61,1.61,0,0,1-.78-.58,2,2,0,0,1,0-1c.08-.32.19-.68.32-1.08a5.68,5.68,0,0,1,.26-.6A2.54,2.54,0,0,0,48,21c.11-.22.22-.44.32-.68s.2-.47.28-.68c.3-.62.6-1.24.92-1.86a14.55,14.55,0,0,1,1-1.74,1.45,1.45,0,0,1,.6-.24.32.32,0,0,1,.34,0,.3.3,0,0,0,.3,0,2.33,2.33,0,0,0,.26.28.47.47,0,0,1,.18.32c0,.18,0,.33.06.44a.62.62,0,0,1-.06.36.86.86,0,0,1-.16.6,1,1,0,0,0-.12.26,1.17,1.17,0,0,1-.12.3s0,0-.06,0,0,0-.06,0a.12.12,0,0,0-.08.12.12.12,0,0,1-.08.12c-.18.37-.38.76-.6,1.16l-.6,1.14a6.09,6.09,0,0,0-.4.94C49.92,22.13,49.92,22.31,50,22.39Zm1.64-9.76c0-.08,0-.23.2-.44a3.53,3.53,0,0,1,.56-.6,2.17,2.17,0,0,1,.64-.4.42.42,0,0,1,.52.12.21.21,0,0,1,.14,0l.1,0a.83.83,0,0,1,.18.78.82.82,0,0,1-.42.62c0,.05,0,.08,0,.1s0,0,0,.1-.11,0-.1.08,0,.13-.14.08,0,.16-.1.24a.34.34,0,0,0-.14.24s-.08,0-.08,0,0,0-.08,0a.54.54,0,0,1-.34.3.78.78,0,0,0-.38.26.23.23,0,0,0-.14,0s-.11,0-.22,0a.53.53,0,0,1-.32-.26.93.93,0,0,1-.06-.42,2.73,2.73,0,0,1,.1-.48A2.72,2.72,0,0,0,51.64,12.63Z"/><path class="cls-1" d="M66.48.75a1.69,1.69,0,0,1,.28.32c.06.08.06.22,0,.44a1.09,1.09,0,0,1-.14.54c-.09.17-.18.32-.26.46a2.16,2.16,0,0,1-.22.62,2.67,2.67,0,0,0-.22.66q-.39,1-.78,2.1a19.94,19.94,0,0,1-.82,2A4.37,4.37,0,0,0,63.66,9c-.14.4-.28.81-.42,1.24-.69,1.68-1.38,3.38-2.08,5.12s-1.34,3.52-2,5.36a7.66,7.66,0,0,1-.38,1.44,12,12,0,0,0-.42,1.48,1.21,1.21,0,0,1-.08.48,4,4,0,0,0-.16,1.36.29.29,0,0,0-.28.14.37.37,0,0,1-.24.18.41.41,0,0,1-.42-.26.28.28,0,0,0-.34-.22.68.68,0,0,0-.22-.32.62.62,0,0,1-.18-.36,11,11,0,0,1,.16-1.2,9.61,9.61,0,0,1,.28-1.12,23.94,23.94,0,0,1,.76-3.26c.32-1,.64-2,1-3a.12.12,0,0,0-.08,0l0,0V16a.35.35,0,0,0,.2-.26,1.7,1.7,0,0,1,.12-.34c.11-.38.27-.85.48-1.42s.44-1.16.68-1.76.48-1.18.7-1.74l.54-1.32v0c.32-.67.61-1.35.86-2S62.7,5.71,63,5c.22-.54.42-1.09.6-1.66s.36-1.12.52-1.62a5.79,5.79,0,0,0,.28-1.2c.06-.16.25-.3.58-.4A1.45,1.45,0,0,1,65.76,0a.8.8,0,0,1,.46.24A1.32,1.32,0,0,1,66.48.75Z"/><path class="cls-1" d="M72.08.75a1.69,1.69,0,0,1,.28.32c.06.08.06.22,0,.44a1.09,1.09,0,0,1-.14.54c-.09.17-.18.32-.26.46a2.16,2.16,0,0,1-.22.62,2.67,2.67,0,0,0-.22.66l-.78,2.1a19.94,19.94,0,0,1-.82,2A4.37,4.37,0,0,0,69.26,9c-.14.4-.28.81-.42,1.24-.69,1.68-1.38,3.38-2.08,5.12s-1.34,3.52-2,5.36a7.66,7.66,0,0,1-.38,1.44A12,12,0,0,0,64,23.67a1.21,1.21,0,0,1-.08.48,4,4,0,0,0-.16,1.36.29.29,0,0,0-.28.14.37.37,0,0,1-.24.18.41.41,0,0,1-.42-.26.28.28,0,0,0-.34-.22.68.68,0,0,0-.22-.32.62.62,0,0,1-.18-.36,11,11,0,0,1,.16-1.2,9.61,9.61,0,0,1,.28-1.12,23.94,23.94,0,0,1,.76-3.26c.32-1,.64-2,1-3a.12.12,0,0,0-.08,0l0,0V16a.35.35,0,0,0,.2-.26,1.7,1.7,0,0,1,.12-.34c.11-.38.27-.85.48-1.42s.44-1.16.68-1.76.48-1.18.7-1.74l.54-1.32v0c.32-.67.61-1.35.86-2s.52-1.4.78-2.12c.22-.54.42-1.09.6-1.66s.36-1.12.52-1.62A5.79,5.79,0,0,0,70,.51c.06-.16.25-.3.58-.4A1.45,1.45,0,0,1,71.36,0a.8.8,0,0,1,.46.24A1.32,1.32,0,0,1,72.08.75Z"/></g></g></svg>