<svg xmlns="http://www.w3.org/2000/svg" viewBox="0 0 73.32 36.9"><defs><style>.cls-1{fill:#fff;}</style></defs><title>アセット 7</title><g id="レイヤー_2" data-name="レイヤー 2"><g id="レイヤー_1-2" data-name="レイヤー 1"><path class="cls-1" d="M29.8,22.84h-.08c-.43.64-.81,1.27-1.16,1.88S27.83,26,27.4,26.56h-.16a5,5,0,0,0-.68,1.14,11.32,11.32,0,0,1-.64,1.22l-.72.88a7.23,7.23,0,0,1-.76.8,1.11,1.11,0,0,1-.48.48,2.25,2.25,0,0,1-.72.22,7.48,7.48,0,0,1-.84.08q-.43,0-.84.06s0,0,0,0,.06,0,.06-.06l-.46.1a1.35,1.35,0,0,1-.54,0,2.06,2.06,0,0,1-.74-.9,6,6,0,0,1-.4-1.32,12.48,12.48,0,0,1-.18-1.54c0-.53,0-1,0-1.52-.13-1.84-.24-3.73-.32-5.66s-.17-3.78-.28-5.54c-.43.45-.86.91-1.3,1.36a11.71,11.71,0,0,0-1.22,1.48,16.16,16.16,0,0,1-1.22,1.54A7.6,7.6,0,0,0,13.84,21a21.9,21.9,0,0,0-2,2.48c-.61.88-1.27,1.75-2,2.6L7.2,29.72c-.51.69-1,1.4-1.52,2.14s-1,1.45-1.56,2.14c-.29.35-.57.7-.84,1.06a9.15,9.15,0,0,1-.84,1,1.05,1.05,0,0,1-.48.28,1.78,1.78,0,0,0-.48.2.4.4,0,0,0-.16.16.49.49,0,0,1-.22.18.66.66,0,0,1-.32,0,.72.72,0,0,1-.42-.3.84.84,0,0,1-.2-.54,2.25,2.25,0,0,0-.08-.58A3.13,3.13,0,0,1,0,34.9a3,3,0,0,1,.08-.58,2.17,2.17,0,0,0,.08-.64,2.86,2.86,0,0,0,.12-.82A5.88,5.88,0,0,1,.36,32c.08-.72.19-1.44.32-2.16s.27-1.44.4-2.16c.29-1.41.57-2.8.84-4.16s.59-2.72,1-4.08c.16-.72.35-1.43.56-2.12a9.55,9.55,0,0,0,.4-2.08c.05-.19.11-.38.18-.58A6.32,6.32,0,0,0,4.2,14q.4-1.44.72-2.94a29.18,29.18,0,0,1,.8-3c.13-.35.28-.72.44-1.12a5.39,5.39,0,0,0,.32-1,1.5,1.5,0,0,0,0-.22.42.42,0,0,1,0-.22.94.94,0,0,1,.6-.74l1-.38a2.57,2.57,0,0,1,.78.34c.28.17.51.33.7.46a1.64,1.64,0,0,1,.4.52,1.39,1.39,0,0,1,.08.84,3.08,3.08,0,0,1-.3,1c-.17.36-.34.71-.5,1.06l-.48,1c-.16.33-.31.66-.44,1A7.4,7.4,0,0,0,8,11.66c-.08.39-.17.77-.28,1.14-.29,1-.56,2-.8,3s-.52,2-.84,3c-.16.48-.29.95-.4,1.42s-.23.94-.36,1.42c-.24.72-.47,1.51-.68,2.38L4,26.56l-.6,2.68c-.21.93-.39,1.85-.52,2.76.61-.8,1.21-1.65,1.78-2.54s1.15-1.77,1.74-2.62,1.24-1.69,1.88-2.5,1.29-1.63,2-2.46l3.34-4.3a30.4,30.4,0,0,1,3.66-3.94,5.31,5.31,0,0,1,.58-.5l.62-.46A3.6,3.6,0,0,1,19,12.2a1.58,1.58,0,0,1,.86-.2,1.32,1.32,0,0,1,.46.14,2.64,2.64,0,0,0,.38.18,5.35,5.35,0,0,1,.16.92c0,.32,0,.68,0,1.08,0,.72.07,1.46.14,2.22s.1,1.53.1,2.3c0,1.44.05,2.88.16,4.32s.2,2.84.28,4.2a6.79,6.79,0,0,0,.4,2.4,14.42,14.42,0,0,0,2-2.42c.57-.87,1.17-1.73,1.78-2.58S27,23,27.6,22.1s1.2-1.77,1.84-2.62c.83-1.15,1.45-2,1.88-2.66l1-1.48c.24-.36.43-.65.56-.88s.32-.51.56-.86.58-.82,1-1.42,1.07-1.45,1.9-2.54C37.05,8.81,37.7,8,38.3,7.16s1.23-1.65,1.9-2.48,1.31-1.61,1.92-2.42A15.84,15.84,0,0,1,44.2,0s0,.05-.06.06,0,0,0,.06.1.07.14,0a.23.23,0,0,1,.14,0l-.6,1.26a4.62,4.62,0,0,1-.76,1.1.14.14,0,0,1,0,.12.51.51,0,0,0,0,.16,3.23,3.23,0,0,0-.68.8c-.29.43-.63.95-1,1.58s-.81,1.33-1.28,2.12-1,1.58-1.46,2.38-1,1.59-1.54,2.36-1,1.47-1.5,2.08a2.16,2.16,0,0,1-.38.62,3.26,3.26,0,0,0-.46.7c0,.08-.08.08-.16,0a.14.14,0,0,1,0,.18.86.86,0,0,1-.14.18l-.36.62a3.14,3.14,0,0,1-.52.66ZM8,4.36H8Zm.2,0c.05,0,0,0-.08,0s0,0,0,0S8.13,4.32,8.16,4.32Z"/><path class="cls-1" d="M43.24,20.88a1.68,1.68,0,0,1,0,.62A1.23,1.23,0,0,1,43,22l-.2.52a2.66,2.66,0,0,1-.28.56,2.58,2.58,0,0,0-.58.82,1.71,1.71,0,0,1-.58.74A16.61,16.61,0,0,1,40,26a8.59,8.59,0,0,1-1.18.82,1.63,1.63,0,0,1-1.06.28,2.74,2.74,0,0,1-1.24.18,2.9,2.9,0,0,1-1.08-.32,2.21,2.21,0,0,1-.8-.72,2.39,2.39,0,0,1-.4-1.06.68.68,0,0,1,0-.3.33.33,0,0,1,.12-.3.74.74,0,0,1,0-.6,1.48,1.48,0,0,0,.14-.56l.72-2c.08,0,.13-.07.14-.14s.05-.1.1-.1A5.46,5.46,0,0,1,36.06,20c.28-.37.57-.72.86-1s.34-.44.54-.68a4.84,4.84,0,0,1,.64-.64,1.62,1.62,0,0,1,.7-.36.75.75,0,0,1,.68.2,2.09,2.09,0,0,1,.68.24c0,.05.06.05.1,0a.1.1,0,0,1,.14,0,.48.48,0,0,1,.3,0l.46.12.44.16a.86.86,0,0,1,.28.16l.4.56c.32-.08.82-.17,1.5-.28s1.39-.19,2.14-.26A19.06,19.06,0,0,1,48,18.06a2.72,2.72,0,0,1,1.4.3.13.13,0,0,0,.1,0,.13.13,0,0,1,.1,0,.1.1,0,0,0,.08,0c.16,0,.25,0,.26,0s.07.08.18.08.16.22.08.34a.69.69,0,0,1-.28.26,1.41,1.41,0,0,0-.54.12l-.2.14a.8.8,0,0,1-.34.08l-.92,0a10.23,10.23,0,0,0-2.44.32l-1.22.3c-.39.09-.71.18-1,.26a1,1,0,0,0,0,.26ZM40.36,19a1.14,1.14,0,0,0-.4-.08.5.5,0,0,1-.36-.16l-.12.12a1.37,1.37,0,0,0-.38.48,6.35,6.35,0,0,1-.34.6c-.13.16-.31.4-.52.72s-.43.66-.64,1-.41.71-.58,1a2.83,2.83,0,0,0-.3.78c-.08.35-.19.72-.32,1.12a1.46,1.46,0,0,0,.08,1.16A6,6,0,0,0,38,25a8.34,8.34,0,0,0,1.22-1.08l.24-.28.6-1A11.07,11.07,0,0,0,40.82,21a3.83,3.83,0,0,0,.28-1.42C41.09,19.17,40.84,19,40.36,19Z"/><path class="cls-1" d="M57.32,17.84a.3.3,0,0,0-.06.2c0,.05,0,.11-.14.16s0,.08-.12.08a.38.38,0,0,1-.3.24.65.65,0,0,0-.38.24q-.8.24-1.68.6c-.59.24-1.15.5-1.7.78a17,17,0,0,0-1.5.86,4.55,4.55,0,0,0-1,.88l-.68.68a5,5,0,0,0-.64.8c-.08.21-.17.48-.26.8s-.18.63-.26.94a8,8,0,0,1-.26.82,1,1,0,0,1-.26.44,2.29,2.29,0,0,1-.32.44c-.16.19-.29.27-.4.24a.88.88,0,0,1-1-.08,1,1,0,0,1-.3-1,8.56,8.56,0,0,1,.36-1.2,8,8,0,0,0,.36-1.24v0a.67.67,0,0,0,0-.24,6.33,6.33,0,0,0,.52-1.16,7.86,7.86,0,0,1,.48-1.16s0-.05.06-.06.06,0,.06-.06a13.14,13.14,0,0,1,.5-1.58q.3-.78.54-1.5a.54.54,0,0,1,.12-.24,1.16,1.16,0,0,0,.16-.2,2.75,2.75,0,0,0,.34-.16.61.61,0,0,1,.3-.08A.28.28,0,0,1,50,17l.18,0,.18,0a.69.69,0,0,1,.52.28.83.83,0,0,1-.08,1.2,3.67,3.67,0,0,1-.14.64,4.14,4.14,0,0,0-.14.56,8.94,8.94,0,0,1,2.76-1.44,11.55,11.55,0,0,1,2.52-.48l.74-.08A1.15,1.15,0,0,1,57.32,17.84Z"/><path class="cls-1" d="M73.08,23c-.06,0,0,0,0,0a.17.17,0,0,1,.16.08q.07.07,0,.24c0,.11,0,.17,0,.2a5.89,5.89,0,0,0-.86.4,4.45,4.45,0,0,1-.86.36,5.8,5.8,0,0,0-1.2.46,5.8,5.8,0,0,1-1.24.46,33.49,33.49,0,0,0-3.82,1,10.29,10.29,0,0,1-2.52.6,1.13,1.13,0,0,1-1.24-.62,5.6,5.6,0,0,1,0-2.64A2.63,2.63,0,0,1,62,22.4a4.14,4.14,0,0,0,.56-1.2l-.24.08a.53.53,0,0,0-.24.2.16.16,0,0,0-.1,0,.19.19,0,0,1-.1,0c-.83.83-1.65,1.61-2.48,2.36a.74.74,0,0,0-.42.26.79.79,0,0,1-.46.26,1,1,0,0,1-.24.36l-.32.32a.72.72,0,0,1-.2.52c-.16.45-.32.93-.48,1.42a12.7,12.7,0,0,1-.56,1.42,3.29,3.29,0,0,1-1,.52.92.92,0,0,1-.58,0,.67.67,0,0,1-.32-.3l-.18-.32c-.05-.05,0-.29.14-.72s.32-.9.52-1.42.39-1,.58-1.48.31-.78.36-.94l.72-1.68c.08-.24.16-.48.26-.72s.19-.48.3-.72a.23.23,0,0,1,.16-.16,4.21,4.21,0,0,0,.12-.48.73.73,0,0,1,.2-.4c0-.08,0-.13,0-.16l.14-.12c.19-.59.4-1.18.66-1.78a10,10,0,0,0,.58-1.86.1.1,0,0,0,0-.08,1.18,1.18,0,0,0,.28-.52,2.62,2.62,0,0,1,.2-.56l.48-1.24a2.69,2.69,0,0,0,.44-.92,3.82,3.82,0,0,1,.36-.92,2.49,2.49,0,0,1,.22-.58,3,3,0,0,0,.22-.58c.13-.29.26-.55.38-.78a4.09,4.09,0,0,0,.3-.74v0s0,0,0,0a3.09,3.09,0,0,0,.06-.34,1.05,1.05,0,0,1,.1-.3l.12-.24a3.31,3.31,0,0,0,.16-.4L63,7l0-.16.08-.32a.14.14,0,0,1,.06-.12.4.4,0,0,0,.1-.12v-.2a.67.67,0,0,1,.14-.28.53.53,0,0,0,.1-.32l.16-.42c0-.15.11-.3.16-.46a2.28,2.28,0,0,0,.26-.76,1.84,1.84,0,0,1,.3-.76A2,2,0,0,0,65,2.84a1,1,0,0,1,.86,0,1.07,1.07,0,0,0,.16.14.32.32,0,0,0,.2.06,2.39,2.39,0,0,1,.56.48,2.35,2.35,0,0,1,.42.72,2.47,2.47,0,0,1,.14.78,1,1,0,0,1-.24.66,4.71,4.71,0,0,1-.48,1,4.26,4.26,0,0,0-.48,1,.65.65,0,0,0-.24.42,1,1,0,0,1-.2.46,1.66,1.66,0,0,1-.2.4,1,1,0,0,0-.16.4s-.08,0-.08,0,0,0,0,0a.22.22,0,0,1,0,.16s0,0,0,.08a1.11,1.11,0,0,0-.26.4,1.18,1.18,0,0,1-.18.32c-.11.24-.22.47-.32.7s-.23.46-.36.7a1.39,1.39,0,0,0-.28.68l-.16.16a.21.21,0,0,0-.08.16,1.7,1.7,0,0,0-.12.3.4.4,0,0,1-.16.22.89.89,0,0,1-.14.38,1.36,1.36,0,0,0-.18.34,1.34,1.34,0,0,0-.12.24,1.34,1.34,0,0,1-.12.24,1,1,0,0,0-.12.32.81.81,0,0,1-.2.32,2,2,0,0,1-.2.72c-.11.21-.23.43-.36.64,0,.05,0,.08,0,.08s0,0,0,.08a.66.66,0,0,0-.06.12.37.37,0,0,0,0,.12.92.92,0,0,0-.24.68,5.39,5.39,0,0,0-.58,1.18,4.26,4.26,0,0,1-.58,1.1c-.11.29-.2.56-.28.8a4.54,4.54,0,0,1-.32.72,4.46,4.46,0,0,0,.72-.5l.68-.54c.45-.4.92-.79,1.4-1.16s1-.73,1.48-1.08q.36-.2.78-.48a2.2,2.2,0,0,1,.86-.36,1.12,1.12,0,0,1,.46-.06,2.86,2.86,0,0,1,.46.06,5.09,5.09,0,0,1,.5.38,1,1,0,0,1,.34.54.75.75,0,0,0,.22.26c.07,0,.1.13.1.26a.37.37,0,0,1-.18.32l-.3.2a.42.42,0,0,1-.26.26.59.59,0,0,0-.3.22,3,3,0,0,0-.9.76,3.08,3.08,0,0,1-.9.76,6.81,6.81,0,0,0-.68.6,6.18,6.18,0,0,0-.66.78,5.3,5.3,0,0,0-.5.84,1.33,1.33,0,0,0-.12.82c-.05.37,0,.59.3.64a4.91,4.91,0,0,0,.94.08,11.41,11.41,0,0,0,1.5-.18l1.46-.3,2.14-.48c.57-.13,1.07-.26,1.5-.38s.81-.22,1.16-.3A10.69,10.69,0,0,1,73.08,23Z"/></g></g></svg>